G75*
%MOIN*%
%OFA0B0*%
%FSLAX25Y25*%
%IPPOS*%
%LPD*%
%AMOC8*
5,1,8,0,0,1.08239X$1,22.5*
%
%ADD10C,0.01000*%
%ADD11R,0.06600X0.01700*%
%ADD12R,0.04331X0.03937*%
%ADD13R,0.02362X0.07480*%
%ADD14R,0.03937X0.04331*%
%ADD15R,0.03150X0.02362*%
%ADD16R,0.05906X0.05906*%
%ADD17R,0.03937X0.01102*%
%ADD18R,0.01102X0.03937*%
%ADD19R,0.07874X0.03937*%
%ADD20R,0.03150X0.06299*%
%ADD21R,0.08268X0.11811*%
%ADD22R,0.29528X0.05906*%
%ADD23R,0.25591X0.03937*%
%ADD24R,0.04776X0.01201*%
%ADD25R,0.01201X0.04776*%
%ADD26R,0.10000X0.05000*%
D10*
X0035752Y0003355D02*
X0035752Y0013198D01*
X0001500Y0013198D01*
X0001500Y0060442D01*
X0035752Y0060442D01*
X0035752Y0070285D01*
X0355043Y0070285D01*
X0355043Y0003355D01*
X0035752Y0003355D01*
D11*
X0148127Y0029060D03*
X0148127Y0031560D03*
X0148127Y0034160D03*
X0148127Y0036760D03*
X0148127Y0039260D03*
X0148127Y0041860D03*
X0148127Y0044360D03*
X0148127Y0046960D03*
X0148127Y0049560D03*
X0148127Y0052060D03*
X0176527Y0052060D03*
X0176527Y0049560D03*
X0176527Y0046960D03*
X0176527Y0044360D03*
X0176527Y0041860D03*
X0176527Y0039260D03*
X0176527Y0036760D03*
X0176527Y0034160D03*
X0176527Y0031560D03*
X0176527Y0029060D03*
D12*
X0189033Y0031537D03*
X0189033Y0024844D03*
X0186519Y0017236D03*
X0193212Y0017236D03*
X0270497Y0020064D03*
X0270497Y0026757D03*
X0263543Y0044889D03*
X0256850Y0044889D03*
X0223547Y0046072D03*
X0216854Y0046072D03*
X0175810Y0060288D03*
X0169117Y0060288D03*
X0100190Y0061840D03*
X0093497Y0061840D03*
X0101369Y0041785D03*
X0101369Y0035092D03*
D13*
X0199447Y0036923D03*
X0204368Y0036923D03*
X0209290Y0036923D03*
X0214211Y0036923D03*
X0214211Y0025112D03*
X0209290Y0025112D03*
X0204368Y0025112D03*
X0199447Y0025112D03*
D14*
X0169410Y0020150D03*
X0162717Y0020150D03*
X0125087Y0017083D03*
X0115383Y0017132D03*
X0115383Y0023825D03*
X0125087Y0023776D03*
X0231057Y0050743D03*
X0231057Y0057436D03*
X0252891Y0063628D03*
X0259583Y0063628D03*
X0190280Y0062607D03*
X0190280Y0055915D03*
X0123209Y0052751D03*
X0100122Y0052962D03*
X0093429Y0052962D03*
X0123209Y0059444D03*
D15*
X0238113Y0052765D03*
X0247956Y0052765D03*
X0247956Y0049025D03*
X0238113Y0049025D03*
X0238113Y0045285D03*
X0247956Y0045285D03*
D16*
X0119424Y0039976D03*
D17*
X0113519Y0039976D03*
X0113519Y0041944D03*
X0125330Y0041944D03*
X0125330Y0039976D03*
X0125330Y0038007D03*
X0113519Y0038007D03*
D18*
X0117456Y0034070D03*
X0119424Y0034070D03*
X0121393Y0034070D03*
X0121393Y0045881D03*
X0119424Y0045881D03*
X0117456Y0045881D03*
D19*
X0284735Y0046061D03*
X0284735Y0051966D03*
X0284735Y0057872D03*
X0284735Y0063777D03*
X0347727Y0063777D03*
X0347727Y0057872D03*
X0347727Y0051966D03*
X0347727Y0046061D03*
X0347727Y0040155D03*
X0347727Y0034250D03*
X0347727Y0028344D03*
X0347727Y0022439D03*
X0347727Y0016533D03*
X0347727Y0010628D03*
X0284735Y0010628D03*
X0284735Y0016533D03*
X0284735Y0022439D03*
X0284735Y0028344D03*
X0284735Y0034250D03*
X0284735Y0040155D03*
D20*
X0251074Y0032140D03*
X0246153Y0032140D03*
X0241232Y0032140D03*
X0236310Y0032140D03*
D21*
X0226232Y0021313D03*
X0261153Y0021313D03*
D22*
X0020398Y0023040D03*
X0020398Y0050600D03*
D23*
X0022366Y0040757D03*
X0022366Y0032883D03*
D24*
X0202780Y0052568D03*
X0202780Y0054537D03*
X0202780Y0056505D03*
X0202780Y0058474D03*
X0202780Y0060442D03*
X0214394Y0060442D03*
X0214394Y0058474D03*
X0214394Y0056505D03*
X0214394Y0054537D03*
X0214394Y0052568D03*
D25*
X0210555Y0050698D03*
X0208587Y0050698D03*
X0206618Y0050698D03*
X0206618Y0062312D03*
X0208587Y0062312D03*
X0210555Y0062312D03*
D26*
X0101303Y0027568D03*
X0101106Y0018316D03*
M02*
