G75*
%MOIN*%
%OFA0B0*%
%FSLAX25Y25*%
%IPPOS*%
%LPD*%
%AMOC8*
5,1,8,0,0,1.08239X$1,22.5*
%
%ADD10C,0.01000*%
%ADD11OC8,0.03169*%
%ADD12C,0.01200*%
%ADD13C,0.01600*%
%ADD14OC8,0.02775*%
D10*
X0035752Y0003355D02*
X0035752Y0013198D01*
X0001500Y0013198D01*
X0001500Y0060442D01*
X0035752Y0060442D01*
X0035752Y0070285D01*
X0355043Y0070285D01*
X0355043Y0003355D01*
X0035752Y0003355D01*
X0040870Y0005355D02*
X0040870Y0068285D01*
X0353043Y0068285D01*
X0353043Y0005355D01*
X0040870Y0005355D01*
X0040870Y0006351D02*
X0164549Y0006351D01*
X0164814Y0006086D02*
X0271257Y0006086D01*
X0272194Y0007023D01*
X0274210Y0009039D01*
X0274304Y0009039D01*
X0275388Y0007955D01*
X0277612Y0007955D01*
X0279184Y0009527D01*
X0279184Y0011751D01*
X0277612Y0013323D01*
X0275471Y0013323D01*
X0276043Y0013860D01*
X0277612Y0013860D01*
X0279184Y0015433D01*
X0279184Y0017656D01*
X0277612Y0019229D01*
X0275388Y0019229D01*
X0273816Y0017656D01*
X0273816Y0016158D01*
X0268386Y0011058D01*
X0246701Y0011058D01*
X0246848Y0011204D01*
X0247785Y0012142D01*
X0247785Y0020451D01*
X0248084Y0020750D01*
X0253779Y0020750D01*
X0254775Y0021746D01*
X0263228Y0030199D01*
X0267317Y0030199D01*
X0268302Y0029215D01*
X0270525Y0029215D01*
X0272098Y0030787D01*
X0272098Y0033011D01*
X0270525Y0034583D01*
X0268302Y0034583D01*
X0267317Y0033599D01*
X0261819Y0033599D01*
X0252371Y0024150D01*
X0248478Y0024150D01*
X0247297Y0025331D01*
X0245073Y0025331D01*
X0243501Y0023759D01*
X0243501Y0021535D01*
X0244585Y0020451D01*
X0244585Y0013467D01*
X0243947Y0012829D01*
X0180312Y0012829D01*
X0178691Y0014451D01*
X0178691Y0024076D01*
X0179578Y0024963D01*
X0179578Y0027024D01*
X0178121Y0028481D01*
X0176060Y0028481D01*
X0174603Y0027024D01*
X0174603Y0024963D01*
X0175491Y0024076D01*
X0175491Y0013126D01*
X0176428Y0012189D01*
X0177559Y0011058D01*
X0174702Y0011058D01*
X0170423Y0016325D01*
X0170423Y0041616D01*
X0170525Y0041616D01*
X0172098Y0043188D01*
X0172098Y0045412D01*
X0170525Y0046985D01*
X0168302Y0046985D01*
X0166729Y0045412D01*
X0166729Y0043188D01*
X0167223Y0042695D01*
X0167223Y0015840D01*
X0167163Y0015262D01*
X0167223Y0015189D01*
X0167223Y0015094D01*
X0167633Y0014684D01*
X0172019Y0009286D01*
X0166139Y0009286D01*
X0162549Y0012876D01*
X0161612Y0013814D01*
X0158617Y0013814D01*
X0158021Y0014410D01*
X0158021Y0042104D01*
X0159105Y0043188D01*
X0159105Y0045412D01*
X0157533Y0046985D01*
X0155309Y0046985D01*
X0153737Y0045412D01*
X0153737Y0043188D01*
X0154821Y0042104D01*
X0154821Y0014410D01*
X0153737Y0013326D01*
X0153737Y0011102D01*
X0155309Y0009529D01*
X0157533Y0009529D01*
X0158617Y0010614D01*
X0160286Y0010614D01*
X0164814Y0006086D01*
X0163550Y0007349D02*
X0040870Y0007349D01*
X0040870Y0008348D02*
X0162552Y0008348D01*
X0165476Y0007686D02*
X0160949Y0012214D01*
X0156421Y0012214D01*
X0156421Y0044300D01*
X0153737Y0044294D02*
X0139160Y0044294D01*
X0138832Y0044622D02*
X0136609Y0044622D01*
X0135036Y0043050D01*
X0135036Y0040826D01*
X0136020Y0039842D01*
X0136020Y0037327D01*
X0123630Y0024937D01*
X0084684Y0024937D01*
X0084105Y0025516D01*
X0084105Y0026908D01*
X0082533Y0028481D01*
X0080309Y0028481D01*
X0078737Y0026908D01*
X0078737Y0024685D01*
X0080309Y0023112D01*
X0081701Y0023112D01*
X0082280Y0022533D01*
X0083276Y0021537D01*
X0125039Y0021537D01*
X0138425Y0034923D01*
X0139420Y0035919D01*
X0139420Y0039842D01*
X0140405Y0040826D01*
X0140405Y0043050D01*
X0138832Y0044622D01*
X0136281Y0044294D02*
X0109505Y0044294D01*
X0109476Y0043296D02*
X0135282Y0043296D01*
X0135036Y0042297D02*
X0109447Y0042297D01*
X0107732Y0041762D02*
X0107732Y0035962D01*
X0114100Y0029593D01*
X0111416Y0029317D02*
X0040870Y0029317D01*
X0040870Y0030315D02*
X0111115Y0030315D01*
X0111416Y0030015D02*
X0111416Y0028481D01*
X0112988Y0026909D01*
X0115212Y0026909D01*
X0116784Y0028481D01*
X0116784Y0030705D01*
X0115212Y0032277D01*
X0113678Y0032277D01*
X0109331Y0036624D01*
X0109331Y0040935D01*
X0109411Y0041009D01*
X0109771Y0053605D01*
X0110816Y0054650D01*
X0110816Y0056874D01*
X0109243Y0058446D01*
X0107020Y0058446D01*
X0105447Y0056874D01*
X0105447Y0054650D01*
X0106373Y0053725D01*
X0106012Y0041106D01*
X0106132Y0040980D01*
X0106132Y0035299D01*
X0111416Y0030015D01*
X0110117Y0031314D02*
X0040870Y0031314D01*
X0040870Y0032312D02*
X0109118Y0032312D01*
X0108120Y0033311D02*
X0040870Y0033311D01*
X0040870Y0034309D02*
X0107121Y0034309D01*
X0106132Y0035308D02*
X0040870Y0035308D01*
X0040870Y0036306D02*
X0106132Y0036306D01*
X0106132Y0037305D02*
X0040870Y0037305D01*
X0040870Y0038303D02*
X0106132Y0038303D01*
X0106132Y0039302D02*
X0040870Y0039302D01*
X0040870Y0040300D02*
X0106132Y0040300D01*
X0106018Y0041299D02*
X0040870Y0041299D01*
X0040870Y0042297D02*
X0106046Y0042297D01*
X0106075Y0043296D02*
X0040870Y0043296D01*
X0040870Y0044294D02*
X0106103Y0044294D01*
X0106132Y0045293D02*
X0040870Y0045293D01*
X0040870Y0046291D02*
X0106160Y0046291D01*
X0106189Y0047290D02*
X0040870Y0047290D01*
X0040870Y0048288D02*
X0106217Y0048288D01*
X0106246Y0049287D02*
X0040870Y0049287D01*
X0040870Y0050285D02*
X0106274Y0050285D01*
X0106303Y0051284D02*
X0040870Y0051284D01*
X0040870Y0052283D02*
X0106331Y0052283D01*
X0106360Y0053281D02*
X0040870Y0053281D01*
X0040870Y0054280D02*
X0105818Y0054280D01*
X0109761Y0053281D02*
X0186171Y0053281D01*
X0187169Y0054280D02*
X0110445Y0054280D01*
X0110816Y0055278D02*
X0188168Y0055278D01*
X0189166Y0056277D02*
X0110816Y0056277D01*
X0110414Y0057275D02*
X0146343Y0057275D01*
X0147042Y0056577D02*
X0145469Y0058149D01*
X0145469Y0059541D01*
X0144693Y0060317D01*
X0090013Y0060317D01*
X0089029Y0059333D01*
X0086805Y0059333D01*
X0085233Y0060905D01*
X0085233Y0063129D01*
X0086805Y0064701D01*
X0089029Y0064701D01*
X0090013Y0063717D01*
X0146102Y0063717D01*
X0147873Y0061945D01*
X0149265Y0061945D01*
X0150838Y0060373D01*
X0150838Y0058149D01*
X0149265Y0056577D01*
X0147042Y0056577D01*
X0149964Y0057275D02*
X0190165Y0057275D01*
X0190057Y0057168D02*
X0184402Y0051512D01*
X0182868Y0051512D01*
X0181296Y0049940D01*
X0181296Y0047716D01*
X0182868Y0046144D01*
X0185092Y0046144D01*
X0186665Y0047716D01*
X0186665Y0049249D01*
X0192320Y0054905D01*
X0221548Y0054905D01*
X0222632Y0053821D01*
X0224856Y0053821D01*
X0226428Y0055393D01*
X0226428Y0057617D01*
X0224856Y0059189D01*
X0222632Y0059189D01*
X0221548Y0058105D01*
X0190995Y0058105D01*
X0190057Y0057168D01*
X0191657Y0056505D02*
X0223744Y0056505D01*
X0226428Y0056277D02*
X0353043Y0056277D01*
X0353043Y0057275D02*
X0226428Y0057275D01*
X0225772Y0058274D02*
X0353043Y0058274D01*
X0353043Y0059272D02*
X0150838Y0059272D01*
X0150838Y0058274D02*
X0221717Y0058274D01*
X0220594Y0059852D02*
X0220988Y0060245D01*
X0220594Y0059852D02*
X0220004Y0059852D01*
X0226313Y0055278D02*
X0353043Y0055278D01*
X0353043Y0054280D02*
X0225315Y0054280D01*
X0222174Y0054280D02*
X0191695Y0054280D01*
X0190696Y0053281D02*
X0260622Y0053281D01*
X0259839Y0052499D02*
X0259839Y0050275D01*
X0261412Y0048703D01*
X0263635Y0048703D01*
X0264420Y0049487D01*
X0273029Y0049487D01*
X0274010Y0048506D01*
X0276234Y0048506D01*
X0277806Y0050078D01*
X0277806Y0052302D01*
X0276234Y0053874D01*
X0274010Y0053874D01*
X0273423Y0053287D01*
X0264420Y0053287D01*
X0263635Y0054071D01*
X0261412Y0054071D01*
X0259839Y0052499D01*
X0259839Y0052283D02*
X0189698Y0052283D01*
X0188699Y0051284D02*
X0259839Y0051284D01*
X0259839Y0050285D02*
X0187701Y0050285D01*
X0186702Y0049287D02*
X0260827Y0049287D01*
X0264220Y0049287D02*
X0273229Y0049287D01*
X0277015Y0049287D02*
X0353043Y0049287D01*
X0353043Y0050285D02*
X0277806Y0050285D01*
X0277806Y0051284D02*
X0353043Y0051284D01*
X0353043Y0052283D02*
X0277806Y0052283D01*
X0276827Y0053281D02*
X0353043Y0053281D01*
X0353043Y0048288D02*
X0186665Y0048288D01*
X0183980Y0048828D02*
X0191657Y0056505D01*
X0185172Y0052283D02*
X0109733Y0052283D01*
X0109704Y0051284D02*
X0131066Y0051284D01*
X0131097Y0051315D02*
X0129524Y0049743D01*
X0129524Y0047519D01*
X0131097Y0045947D01*
X0133321Y0045947D01*
X0134893Y0047519D01*
X0134893Y0047718D01*
X0160231Y0047718D01*
X0161215Y0046734D01*
X0163439Y0046734D01*
X0165011Y0048307D01*
X0165011Y0050530D01*
X0163439Y0052103D01*
X0161215Y0052103D01*
X0160231Y0051118D01*
X0133517Y0051118D01*
X0133321Y0051315D01*
X0131097Y0051315D01*
X0133352Y0051284D02*
X0160396Y0051284D01*
X0164257Y0051284D02*
X0182640Y0051284D01*
X0181642Y0050285D02*
X0165011Y0050285D01*
X0165011Y0049287D02*
X0181296Y0049287D01*
X0181296Y0048288D02*
X0164993Y0048288D01*
X0163994Y0047290D02*
X0181722Y0047290D01*
X0182721Y0046291D02*
X0171218Y0046291D01*
X0172098Y0045293D02*
X0189994Y0045293D01*
X0190254Y0045554D02*
X0186567Y0041866D01*
X0185312Y0041866D01*
X0183855Y0040409D01*
X0183855Y0038349D01*
X0185312Y0036892D01*
X0187373Y0036892D01*
X0188830Y0038349D01*
X0188830Y0039604D01*
X0192517Y0043291D01*
X0202338Y0043291D01*
X0203226Y0042403D01*
X0205286Y0042403D01*
X0206743Y0043861D01*
X0206743Y0045921D01*
X0205286Y0047378D01*
X0203226Y0047378D01*
X0202338Y0046491D01*
X0191192Y0046491D01*
X0190254Y0045554D01*
X0190992Y0046291D02*
X0185240Y0046291D01*
X0186238Y0047290D02*
X0203137Y0047290D01*
X0205375Y0047290D02*
X0353043Y0047290D01*
X0353043Y0046291D02*
X0206373Y0046291D01*
X0206743Y0045293D02*
X0353043Y0045293D01*
X0353043Y0044294D02*
X0206743Y0044294D01*
X0206179Y0043296D02*
X0353043Y0043296D01*
X0353043Y0042297D02*
X0191524Y0042297D01*
X0187997Y0043296D02*
X0172098Y0043296D01*
X0172098Y0044294D02*
X0188995Y0044294D01*
X0191854Y0044891D02*
X0204256Y0044891D01*
X0191854Y0044891D02*
X0186343Y0039379D01*
X0188830Y0039302D02*
X0353043Y0039302D01*
X0353043Y0040300D02*
X0189527Y0040300D01*
X0190525Y0041299D02*
X0353043Y0041299D01*
X0353043Y0038303D02*
X0188784Y0038303D01*
X0183901Y0038303D02*
X0170423Y0038303D01*
X0170423Y0039302D02*
X0183855Y0039302D01*
X0183855Y0040300D02*
X0170423Y0040300D01*
X0170423Y0041299D02*
X0184745Y0041299D01*
X0186998Y0042297D02*
X0171207Y0042297D01*
X0167223Y0042297D02*
X0158214Y0042297D01*
X0159105Y0043296D02*
X0166729Y0043296D01*
X0166729Y0044294D02*
X0159105Y0044294D01*
X0153737Y0043296D02*
X0140159Y0043296D01*
X0140405Y0042297D02*
X0154628Y0042297D01*
X0154821Y0041299D02*
X0140405Y0041299D01*
X0139879Y0040300D02*
X0154821Y0040300D01*
X0154821Y0039302D02*
X0139420Y0039302D01*
X0139420Y0038303D02*
X0154821Y0038303D01*
X0158021Y0038303D02*
X0167223Y0038303D01*
X0167223Y0039302D02*
X0158021Y0039302D01*
X0158021Y0040300D02*
X0167223Y0040300D01*
X0167223Y0041299D02*
X0158021Y0041299D01*
X0168823Y0043710D02*
X0169413Y0044300D01*
X0168823Y0043710D02*
X0168823Y0015757D01*
X0173941Y0009458D01*
X0269020Y0009458D01*
X0275516Y0015560D01*
X0275516Y0016544D01*
X0276500Y0016544D01*
X0279184Y0016336D02*
X0353043Y0016336D01*
X0353043Y0015338D02*
X0279089Y0015338D01*
X0278091Y0014339D02*
X0353043Y0014339D01*
X0353043Y0013341D02*
X0275490Y0013341D01*
X0278593Y0012342D02*
X0353043Y0012342D01*
X0353043Y0011344D02*
X0279184Y0011344D01*
X0279184Y0010345D02*
X0353043Y0010345D01*
X0353043Y0009347D02*
X0279004Y0009347D01*
X0276500Y0010639D02*
X0273547Y0010639D01*
X0270594Y0007686D01*
X0165476Y0007686D01*
X0166079Y0009347D02*
X0171970Y0009347D01*
X0171159Y0010345D02*
X0165080Y0010345D01*
X0164082Y0011344D02*
X0170347Y0011344D01*
X0174470Y0011344D02*
X0177273Y0011344D01*
X0179650Y0011229D02*
X0177091Y0013789D01*
X0177091Y0025993D01*
X0179578Y0026321D02*
X0254542Y0026321D01*
X0253543Y0025323D02*
X0247305Y0025323D01*
X0245065Y0025323D02*
X0179578Y0025323D01*
X0178939Y0024324D02*
X0244066Y0024324D01*
X0243501Y0023326D02*
X0178691Y0023326D01*
X0178691Y0022327D02*
X0243501Y0022327D01*
X0246185Y0022647D02*
X0246185Y0012804D01*
X0244610Y0011229D01*
X0179650Y0011229D01*
X0176274Y0012342D02*
X0173659Y0012342D01*
X0172848Y0013341D02*
X0175491Y0013341D01*
X0175491Y0014339D02*
X0172036Y0014339D01*
X0168725Y0013341D02*
X0162085Y0013341D01*
X0163083Y0012342D02*
X0169536Y0012342D01*
X0167913Y0014339D02*
X0158092Y0014339D01*
X0154751Y0014339D02*
X0040870Y0014339D01*
X0040870Y0013341D02*
X0153752Y0013341D01*
X0153737Y0012342D02*
X0040870Y0012342D01*
X0040870Y0011344D02*
X0153737Y0011344D01*
X0154494Y0010345D02*
X0040870Y0010345D01*
X0040870Y0009347D02*
X0161553Y0009347D01*
X0160555Y0010345D02*
X0158349Y0010345D01*
X0178803Y0014339D02*
X0244585Y0014339D01*
X0244459Y0013341D02*
X0179801Y0013341D01*
X0178691Y0015338D02*
X0244585Y0015338D01*
X0244585Y0016336D02*
X0178691Y0016336D01*
X0178691Y0017335D02*
X0244585Y0017335D01*
X0244585Y0018333D02*
X0178691Y0018333D01*
X0175491Y0018333D02*
X0170423Y0018333D01*
X0170423Y0017335D02*
X0175491Y0017335D01*
X0175491Y0016336D02*
X0170423Y0016336D01*
X0171225Y0015338D02*
X0175491Y0015338D01*
X0167171Y0015338D02*
X0158021Y0015338D01*
X0158021Y0016336D02*
X0167223Y0016336D01*
X0167223Y0017335D02*
X0158021Y0017335D01*
X0158021Y0018333D02*
X0167223Y0018333D01*
X0167223Y0019332D02*
X0158021Y0019332D01*
X0158021Y0020330D02*
X0167223Y0020330D01*
X0167223Y0021329D02*
X0158021Y0021329D01*
X0154821Y0021329D02*
X0040870Y0021329D01*
X0040870Y0020330D02*
X0154821Y0020330D01*
X0154821Y0019332D02*
X0040870Y0019332D01*
X0040870Y0018333D02*
X0154821Y0018333D01*
X0154821Y0017335D02*
X0040870Y0017335D01*
X0040870Y0016336D02*
X0154821Y0016336D01*
X0154821Y0015338D02*
X0040870Y0015338D01*
X0040870Y0022327D02*
X0082486Y0022327D01*
X0080096Y0023326D02*
X0040870Y0023326D01*
X0040870Y0024324D02*
X0079097Y0024324D01*
X0078737Y0025323D02*
X0040870Y0025323D01*
X0040870Y0026321D02*
X0078737Y0026321D01*
X0079148Y0027320D02*
X0040870Y0027320D01*
X0040870Y0028318D02*
X0080147Y0028318D01*
X0082696Y0028318D02*
X0111579Y0028318D01*
X0112577Y0027320D02*
X0083694Y0027320D01*
X0084105Y0026321D02*
X0125014Y0026321D01*
X0124016Y0025323D02*
X0084299Y0025323D01*
X0113644Y0032312D02*
X0131005Y0032312D01*
X0132004Y0033311D02*
X0112645Y0033311D01*
X0111647Y0034309D02*
X0133002Y0034309D01*
X0136812Y0033311D02*
X0154821Y0033311D01*
X0154821Y0034309D02*
X0137811Y0034309D01*
X0138809Y0035308D02*
X0154821Y0035308D01*
X0154821Y0036306D02*
X0139420Y0036306D01*
X0139420Y0037305D02*
X0154821Y0037305D01*
X0158021Y0037305D02*
X0167223Y0037305D01*
X0167223Y0036306D02*
X0158021Y0036306D01*
X0158021Y0035308D02*
X0167223Y0035308D01*
X0170423Y0035308D02*
X0353043Y0035308D01*
X0353043Y0036306D02*
X0170423Y0036306D01*
X0170423Y0037305D02*
X0184899Y0037305D01*
X0187786Y0037305D02*
X0353043Y0037305D01*
X0353043Y0034309D02*
X0270799Y0034309D01*
X0271797Y0033311D02*
X0353043Y0033311D01*
X0353043Y0032312D02*
X0272098Y0032312D01*
X0272098Y0031314D02*
X0353043Y0031314D01*
X0353043Y0030315D02*
X0271626Y0030315D01*
X0270627Y0029317D02*
X0353043Y0029317D01*
X0353043Y0028318D02*
X0261347Y0028318D01*
X0260349Y0027320D02*
X0353043Y0027320D01*
X0353043Y0026321D02*
X0259350Y0026321D01*
X0258352Y0025323D02*
X0353043Y0025323D01*
X0353043Y0024324D02*
X0257353Y0024324D01*
X0256355Y0023326D02*
X0353043Y0023326D01*
X0353043Y0022327D02*
X0255356Y0022327D01*
X0254358Y0021329D02*
X0353043Y0021329D01*
X0353043Y0020330D02*
X0247785Y0020330D01*
X0247785Y0019332D02*
X0353043Y0019332D01*
X0353043Y0018333D02*
X0278507Y0018333D01*
X0279184Y0017335D02*
X0353043Y0017335D01*
X0353043Y0008348D02*
X0278005Y0008348D01*
X0274995Y0008348D02*
X0273519Y0008348D01*
X0272521Y0007349D02*
X0353043Y0007349D01*
X0353043Y0006351D02*
X0271522Y0006351D01*
X0268690Y0011344D02*
X0246987Y0011344D01*
X0247785Y0012342D02*
X0269753Y0012342D01*
X0270816Y0013341D02*
X0247785Y0013341D01*
X0247785Y0014339D02*
X0271879Y0014339D01*
X0272942Y0015338D02*
X0247785Y0015338D01*
X0247785Y0016336D02*
X0273816Y0016336D01*
X0273816Y0017335D02*
X0247785Y0017335D01*
X0247785Y0018333D02*
X0274493Y0018333D01*
X0252545Y0024324D02*
X0248304Y0024324D01*
X0243707Y0021329D02*
X0178691Y0021329D01*
X0178691Y0020330D02*
X0244585Y0020330D01*
X0244585Y0019332D02*
X0178691Y0019332D01*
X0175491Y0019332D02*
X0170423Y0019332D01*
X0170423Y0020330D02*
X0175491Y0020330D01*
X0175491Y0021329D02*
X0170423Y0021329D01*
X0170423Y0022327D02*
X0175491Y0022327D01*
X0175491Y0023326D02*
X0170423Y0023326D01*
X0170423Y0024324D02*
X0175242Y0024324D01*
X0174603Y0025323D02*
X0170423Y0025323D01*
X0170423Y0026321D02*
X0174603Y0026321D01*
X0174899Y0027320D02*
X0170423Y0027320D01*
X0170423Y0028318D02*
X0175898Y0028318D01*
X0178283Y0028318D02*
X0256539Y0028318D01*
X0255540Y0027320D02*
X0179282Y0027320D01*
X0170423Y0029317D02*
X0257537Y0029317D01*
X0258536Y0030315D02*
X0170423Y0030315D01*
X0170423Y0031314D02*
X0259534Y0031314D01*
X0260533Y0032312D02*
X0170423Y0032312D01*
X0170423Y0033311D02*
X0261531Y0033311D01*
X0268028Y0034309D02*
X0170423Y0034309D01*
X0167223Y0034309D02*
X0158021Y0034309D01*
X0158021Y0033311D02*
X0167223Y0033311D01*
X0167223Y0032312D02*
X0158021Y0032312D01*
X0154821Y0032312D02*
X0135814Y0032312D01*
X0134815Y0031314D02*
X0154821Y0031314D01*
X0154821Y0030315D02*
X0133817Y0030315D01*
X0132818Y0029317D02*
X0154821Y0029317D01*
X0158021Y0029317D02*
X0167223Y0029317D01*
X0167223Y0030315D02*
X0158021Y0030315D01*
X0158021Y0031314D02*
X0167223Y0031314D01*
X0167223Y0028318D02*
X0158021Y0028318D01*
X0158021Y0027320D02*
X0167223Y0027320D01*
X0167223Y0026321D02*
X0158021Y0026321D01*
X0158021Y0025323D02*
X0167223Y0025323D01*
X0167223Y0024324D02*
X0158021Y0024324D01*
X0158021Y0023326D02*
X0167223Y0023326D01*
X0167223Y0022327D02*
X0158021Y0022327D01*
X0154821Y0022327D02*
X0125829Y0022327D01*
X0126827Y0023326D02*
X0154821Y0023326D01*
X0154821Y0024324D02*
X0127826Y0024324D01*
X0128824Y0025323D02*
X0154821Y0025323D01*
X0154821Y0026321D02*
X0129823Y0026321D01*
X0130821Y0027320D02*
X0154821Y0027320D01*
X0154821Y0028318D02*
X0131820Y0028318D01*
X0127011Y0028318D02*
X0116621Y0028318D01*
X0115623Y0027320D02*
X0126013Y0027320D01*
X0128010Y0029317D02*
X0116784Y0029317D01*
X0116784Y0030315D02*
X0129008Y0030315D01*
X0130007Y0031314D02*
X0116176Y0031314D01*
X0110648Y0035308D02*
X0134001Y0035308D01*
X0134999Y0036306D02*
X0109650Y0036306D01*
X0109331Y0037305D02*
X0135998Y0037305D01*
X0136020Y0038303D02*
X0109331Y0038303D01*
X0109331Y0039302D02*
X0136020Y0039302D01*
X0135562Y0040300D02*
X0109331Y0040300D01*
X0109419Y0041299D02*
X0135036Y0041299D01*
X0153737Y0045293D02*
X0109533Y0045293D01*
X0109562Y0046291D02*
X0130752Y0046291D01*
X0129754Y0047290D02*
X0109590Y0047290D01*
X0109619Y0048288D02*
X0129524Y0048288D01*
X0129524Y0049287D02*
X0109647Y0049287D01*
X0109676Y0050285D02*
X0130067Y0050285D01*
X0134664Y0047290D02*
X0160659Y0047290D01*
X0158226Y0046291D02*
X0167608Y0046291D01*
X0166729Y0045293D02*
X0159105Y0045293D01*
X0154616Y0046291D02*
X0133665Y0046291D01*
X0105447Y0055278D02*
X0040870Y0055278D01*
X0040870Y0056277D02*
X0105447Y0056277D01*
X0105849Y0057275D02*
X0040870Y0057275D01*
X0040870Y0058274D02*
X0106847Y0058274D01*
X0109416Y0058274D02*
X0145469Y0058274D01*
X0145469Y0059272D02*
X0040870Y0059272D01*
X0040870Y0060271D02*
X0085867Y0060271D01*
X0089967Y0060271D02*
X0144740Y0060271D01*
X0149941Y0061269D02*
X0353043Y0061269D01*
X0353043Y0062268D02*
X0147551Y0062268D01*
X0146553Y0063266D02*
X0353043Y0063266D01*
X0353043Y0064265D02*
X0089466Y0064265D01*
X0086369Y0064265D02*
X0040870Y0064265D01*
X0040870Y0063266D02*
X0085370Y0063266D01*
X0085233Y0062268D02*
X0040870Y0062268D01*
X0040870Y0061269D02*
X0085233Y0061269D01*
X0040870Y0065263D02*
X0353043Y0065263D01*
X0353043Y0066262D02*
X0040870Y0066262D01*
X0040870Y0067260D02*
X0353043Y0067260D01*
X0353043Y0068259D02*
X0040870Y0068259D01*
X0150838Y0060271D02*
X0353043Y0060271D01*
X0268199Y0029317D02*
X0262346Y0029317D01*
D11*
X0269413Y0031899D03*
X0255634Y0035836D03*
X0269610Y0040757D03*
X0252091Y0049025D03*
X0262524Y0051387D03*
X0275122Y0051190D03*
X0223744Y0056505D03*
X0220004Y0059852D03*
X0238705Y0063395D03*
X0220791Y0052174D03*
X0200319Y0050206D03*
X0183980Y0048828D03*
X0168429Y0050993D03*
X0162327Y0049418D03*
X0156421Y0044300D03*
X0169413Y0044300D03*
X0137720Y0041938D03*
X0132209Y0048631D03*
X0115916Y0051937D03*
X0108132Y0055762D03*
X0087917Y0062017D03*
X0100122Y0065560D03*
X0148154Y0059261D03*
X0165083Y0060245D03*
X0186539Y0063198D03*
X0223547Y0042135D03*
X0218232Y0025206D03*
X0246185Y0022647D03*
X0276500Y0016544D03*
X0276500Y0010639D03*
X0277369Y0022562D03*
X0182602Y0019891D03*
X0156421Y0012214D03*
X0119906Y0017174D03*
X0081421Y0025796D03*
X0114100Y0029593D03*
X0046776Y0050600D03*
D12*
X0087917Y0062017D02*
X0145398Y0062017D01*
X0148154Y0059261D01*
X0161343Y0063198D02*
X0161736Y0062804D01*
X0165083Y0060245D01*
X0186539Y0063198D02*
X0187130Y0064576D01*
X0187917Y0063789D01*
X0223547Y0042135D02*
X0233980Y0064576D01*
X0238705Y0063395D02*
X0248744Y0059655D01*
X0248350Y0059261D01*
X0221972Y0052174D02*
X0220791Y0052174D01*
X0201106Y0049615D02*
X0200516Y0050206D01*
X0200319Y0050206D01*
X0223547Y0042135D02*
X0232012Y0045678D01*
X0252091Y0049025D02*
X0255437Y0044694D01*
X0255831Y0045088D01*
X0272563Y0035836D02*
X0272957Y0036229D01*
X0269413Y0031899D02*
X0262524Y0031899D01*
X0253075Y0022450D01*
X0246382Y0022450D01*
X0246185Y0022647D01*
X0219217Y0026190D02*
X0218232Y0025206D01*
X0182799Y0021072D02*
X0182602Y0020875D01*
X0182602Y0019891D01*
X0137720Y0036623D02*
X0124335Y0023237D01*
X0083980Y0023237D01*
X0081421Y0025796D01*
X0137720Y0036623D02*
X0137720Y0041938D01*
X0107732Y0041762D02*
X0108132Y0055762D01*
X0132209Y0048631D02*
X0132996Y0049418D01*
X0162327Y0049418D01*
X0168429Y0050993D02*
X0168429Y0051781D01*
X0168626Y0051977D01*
X0103469Y0066544D02*
X0100122Y0065560D01*
D13*
X0047760Y0050600D02*
X0046776Y0050600D01*
X0262524Y0051387D02*
X0274925Y0051387D01*
X0275122Y0051190D01*
D14*
X0204256Y0044891D03*
X0186343Y0039379D03*
X0177091Y0025993D03*
M02*
