G75*
G70*
%OFA0B0*%
%FSLAX24Y24*%
%IPPOS*%
%LPD*%
%AMOC8*
5,1,8,0,0,1.08239X$1,22.5*
%
%ADD10C,0.0100*%
%ADD11R,0.0170X0.0660*%
%ADD12R,0.0433X0.0394*%
%ADD13R,0.0236X0.0433*%
%ADD14R,0.0394X0.0433*%
%ADD15R,0.0236X0.0315*%
%ADD16R,0.0236X0.0335*%
%ADD17R,0.0276X0.0315*%
%ADD18R,0.0591X0.0591*%
%ADD19R,0.0276X0.0110*%
%ADD20R,0.0110X0.0276*%
%ADD21R,0.0787X0.0394*%
%ADD22R,0.1575X0.0945*%
%ADD23R,0.0787X0.1181*%
%ADD24C,0.0120*%
%ADD25OC8,0.0356*%
%ADD26C,0.0160*%
D10*
X000150Y000336D02*
X000150Y007056D01*
X000150Y007076D02*
X030913Y007076D01*
X030913Y000336D01*
X000150Y000336D01*
D11*
X009786Y003508D03*
X010036Y003508D03*
X010296Y003508D03*
X010556Y003508D03*
X010806Y003508D03*
X011066Y003508D03*
X011316Y003508D03*
X011576Y003508D03*
X011836Y003508D03*
X012086Y003508D03*
X012086Y006348D03*
X011836Y006348D03*
X011576Y006348D03*
X011316Y006348D03*
X011066Y006348D03*
X010806Y006348D03*
X010556Y006348D03*
X010296Y006348D03*
X010036Y006348D03*
X009786Y006348D03*
D12*
X013096Y005412D03*
X013765Y005412D03*
X013782Y004564D03*
X013113Y004564D03*
X008897Y003856D03*
X008897Y003187D03*
X013156Y003226D03*
X013826Y003226D03*
X017661Y001836D03*
X017661Y001167D03*
X012430Y001182D03*
X011761Y001182D03*
D13*
X010712Y001429D03*
X010220Y001429D03*
X009728Y001429D03*
X009236Y001429D03*
X009236Y002295D03*
X009728Y002295D03*
X010220Y002295D03*
X010712Y002295D03*
D14*
X011705Y002160D03*
X012375Y002160D03*
X008546Y002109D03*
X007548Y002378D03*
X006263Y002382D03*
X006263Y001713D03*
X007548Y001708D03*
X008546Y001440D03*
X016747Y003534D03*
X017416Y003534D03*
X015407Y004276D03*
X014738Y004276D03*
X007183Y005275D03*
X007183Y005944D03*
X013105Y006302D03*
X013774Y006302D03*
D15*
X013857Y002501D03*
X013482Y002501D03*
X013108Y002501D03*
X013108Y001517D03*
X013482Y001517D03*
X013857Y001517D03*
D16*
X015092Y002492D03*
X015564Y002492D03*
X016037Y002492D03*
X016509Y002492D03*
X016618Y005055D03*
X016146Y005055D03*
X015673Y005055D03*
X015201Y005055D03*
D17*
X014748Y006541D03*
X017071Y006541D03*
X016962Y001006D03*
X014639Y001006D03*
D18*
X006982Y003998D03*
D19*
X007513Y003998D03*
X007513Y004194D03*
X006450Y004194D03*
X006450Y003998D03*
X006450Y003801D03*
X007513Y003801D03*
D20*
X007179Y003466D03*
X006982Y003466D03*
X006785Y003466D03*
X006785Y004529D03*
X006982Y004529D03*
X007179Y004529D03*
D21*
X023749Y004606D03*
X023749Y005197D03*
X023749Y005787D03*
X023749Y006378D03*
X030048Y006378D03*
X030048Y005787D03*
X030048Y005197D03*
X030048Y004606D03*
X030048Y004016D03*
X030048Y003425D03*
X030048Y002834D03*
X030048Y002244D03*
X030048Y001653D03*
X030048Y001063D03*
X023749Y001063D03*
X023749Y001653D03*
X023749Y002244D03*
X023749Y002834D03*
X023749Y003425D03*
X023749Y004016D03*
D22*
X003053Y005645D03*
X003053Y001708D03*
D23*
X018916Y001788D03*
X021869Y001788D03*
X021869Y005725D03*
X018916Y005725D03*
D24*
X017653Y006096D02*
X017373Y005816D01*
X016033Y005816D01*
X015673Y005457D01*
X015673Y005055D01*
X016146Y005055D02*
X016153Y005055D01*
X016153Y004536D01*
X016618Y004671D02*
X016713Y004576D01*
X016618Y004671D02*
X016618Y005055D01*
X015201Y005055D02*
X014836Y005420D01*
X013773Y005420D01*
X013765Y005412D01*
X013773Y005420D02*
X013773Y005696D01*
X013593Y005876D01*
X013373Y005876D01*
X013105Y006144D01*
X013105Y006302D01*
X012899Y006348D01*
X012086Y006348D01*
X012086Y006509D01*
X011316Y006348D02*
X011316Y005853D01*
X011513Y005656D01*
X010553Y005696D02*
X010553Y006345D01*
X010556Y006348D01*
X010556Y006356D01*
X010553Y006356D01*
X010296Y006348D02*
X010296Y005899D01*
X010033Y005636D01*
X009493Y005636D01*
X007854Y003998D01*
X007513Y003998D01*
X007513Y004194D02*
X007513Y004597D01*
X007913Y004996D01*
X007183Y005275D02*
X007179Y005271D01*
X007179Y004529D01*
X006982Y004529D02*
X006982Y004807D01*
X006873Y004916D01*
X006653Y004916D01*
X006533Y005036D01*
X006785Y004529D02*
X004508Y004529D01*
X003053Y005645D01*
X005853Y005576D02*
X006221Y005944D01*
X007183Y005944D01*
X008037Y003801D02*
X009593Y005356D01*
X010213Y005356D01*
X010553Y005696D01*
X011066Y005203D02*
X011066Y006348D01*
X013096Y005412D02*
X013096Y005193D01*
X013273Y005016D01*
X013613Y005016D01*
X013753Y004876D01*
X013753Y004936D01*
X014273Y004936D01*
X013753Y004876D02*
X013753Y004593D01*
X013782Y004564D01*
X014738Y004276D02*
X014733Y003616D01*
X014343Y003226D01*
X013826Y003226D01*
X012373Y002836D02*
X011773Y002836D01*
X011576Y003033D01*
X011576Y003508D01*
X011316Y003508D02*
X011316Y004193D01*
X011293Y004216D01*
X010536Y004493D02*
X010556Y003508D01*
X010296Y003508D02*
X010296Y002979D01*
X010193Y002876D01*
X010949Y002876D01*
X011705Y002160D01*
X010193Y002876D02*
X009728Y002412D01*
X009728Y002295D01*
X009236Y002295D02*
X009236Y002600D01*
X009473Y002836D01*
X009122Y003187D01*
X008897Y003187D01*
X009473Y002836D02*
X009853Y002836D01*
X010033Y003016D01*
X010033Y003505D01*
X010036Y003508D01*
X009786Y003508D02*
X009784Y004288D01*
X008037Y003801D02*
X007513Y003801D01*
X006982Y003998D02*
X006982Y004529D01*
X006450Y004194D02*
X005039Y004194D01*
X003053Y001708D01*
X005573Y001476D02*
X005873Y001176D01*
X007016Y001176D01*
X007548Y001708D01*
X006873Y001796D02*
X006790Y001713D01*
X006263Y001713D01*
X005573Y001476D02*
X005573Y002876D01*
X005773Y003076D01*
X005773Y003676D01*
X006094Y003998D01*
X006450Y003998D01*
X006450Y003801D02*
X006450Y003354D01*
X006253Y003156D01*
X006982Y002944D02*
X007548Y002378D01*
X006785Y002629D02*
X006785Y003466D01*
X006982Y003466D02*
X006982Y002944D01*
X006785Y002629D02*
X006539Y002382D01*
X006263Y002382D01*
X010220Y001429D02*
X010712Y001429D01*
X016037Y002492D02*
X016037Y003032D01*
X016033Y003036D01*
X016531Y003534D01*
X016747Y003534D01*
X017416Y003534D02*
X017478Y003596D01*
X017513Y003596D01*
X017833Y003916D01*
X017833Y004076D01*
X018953Y002956D01*
X022013Y002956D01*
X022573Y002396D01*
X022573Y002036D01*
X022933Y001676D01*
X023766Y001676D01*
X023749Y001653D01*
X023762Y001076D02*
X022993Y001076D01*
X023749Y001063D02*
X023762Y001076D01*
X018916Y001788D02*
X018868Y001836D01*
X017661Y001836D01*
X017033Y002465D01*
X017033Y002896D01*
X011316Y003508D02*
X011313Y003511D01*
X017653Y006096D02*
X017653Y006296D01*
X022953Y004616D02*
X022962Y004626D01*
X023749Y004606D01*
D25*
X022953Y004616D03*
X017833Y004076D03*
X016713Y004576D03*
X016153Y004536D03*
X014273Y004936D03*
X011513Y005656D03*
X011066Y005203D03*
X010536Y004493D03*
X009784Y004288D03*
X011293Y004216D03*
X012073Y004116D03*
X014733Y003616D03*
X014813Y003016D03*
X016033Y003036D03*
X016513Y002936D03*
X017033Y002896D03*
X012373Y002836D03*
X008533Y002576D03*
X006253Y003156D03*
X006873Y001796D03*
X011233Y001496D03*
X013473Y001016D03*
X021033Y001076D03*
X022993Y001076D03*
X023013Y002256D03*
X007913Y004996D03*
X006533Y005036D03*
X005853Y005576D03*
X017653Y006296D03*
D26*
X017971Y006282D02*
X018382Y006282D01*
X018382Y006373D02*
X018382Y005076D01*
X018464Y004994D01*
X019368Y004994D01*
X019450Y005076D01*
X019450Y006373D01*
X019368Y006455D01*
X018464Y006455D01*
X018382Y006373D01*
X018450Y006441D02*
X017958Y006441D01*
X017971Y006428D02*
X017784Y006614D01*
X017521Y006614D01*
X017349Y006442D01*
X017349Y006757D01*
X017267Y006839D01*
X016875Y006839D01*
X016793Y006757D01*
X016793Y006326D01*
X016875Y006244D01*
X017267Y006244D01*
X017334Y006311D01*
X017334Y006164D01*
X017386Y006113D01*
X017290Y006016D01*
X015950Y006016D01*
X015473Y005540D01*
X015473Y005338D01*
X015437Y005302D01*
X015377Y005362D01*
X015176Y005362D01*
X014919Y005620D01*
X014122Y005620D01*
X014122Y005667D01*
X014040Y005749D01*
X013973Y005749D01*
X013973Y005779D01*
X013855Y005896D01*
X013846Y005906D01*
X013995Y005906D01*
X014041Y005918D01*
X014082Y005942D01*
X014115Y005975D01*
X014139Y006016D01*
X014151Y006062D01*
X014151Y006284D01*
X013793Y006284D01*
X013793Y006321D01*
X014151Y006321D01*
X014151Y006542D01*
X014139Y006588D01*
X014115Y006629D01*
X014082Y006663D01*
X014041Y006686D01*
X013995Y006699D01*
X013793Y006699D01*
X013793Y006321D01*
X013756Y006321D01*
X013756Y006699D01*
X013554Y006699D01*
X013508Y006686D01*
X013467Y006663D01*
X013433Y006629D01*
X013417Y006601D01*
X013360Y006659D01*
X012850Y006659D01*
X012768Y006577D01*
X012768Y006548D01*
X012311Y006548D01*
X012311Y006736D01*
X012229Y006818D01*
X009643Y006818D01*
X009561Y006736D01*
X009561Y005960D01*
X009643Y005878D01*
X009992Y005878D01*
X009950Y005836D01*
X009410Y005836D01*
X009293Y005719D01*
X007791Y004218D01*
X007791Y004308D01*
X007713Y004385D01*
X007713Y004514D01*
X007877Y004678D01*
X008044Y004678D01*
X008231Y004864D01*
X008231Y005128D01*
X008044Y005314D01*
X007781Y005314D01*
X007594Y005128D01*
X007594Y004961D01*
X007379Y004745D01*
X007379Y004919D01*
X007438Y004919D01*
X007520Y005001D01*
X007520Y005550D01*
X007460Y005610D01*
X007520Y005670D01*
X007520Y006219D01*
X007438Y006301D01*
X006928Y006301D01*
X006846Y006219D01*
X006846Y006144D01*
X006138Y006144D01*
X005888Y005894D01*
X005721Y005894D01*
X005534Y005708D01*
X005534Y005444D01*
X005721Y005258D01*
X005984Y005258D01*
X006171Y005444D01*
X006171Y005611D01*
X006304Y005744D01*
X006846Y005744D01*
X006846Y005670D01*
X006906Y005610D01*
X006846Y005550D01*
X006846Y005172D01*
X006664Y005354D01*
X006401Y005354D01*
X006214Y005168D01*
X006214Y004904D01*
X006390Y004729D01*
X004576Y004729D01*
X003980Y005186D01*
X003980Y006175D01*
X003898Y006257D01*
X002207Y006257D01*
X002125Y006175D01*
X002125Y005114D01*
X002207Y005032D01*
X003523Y005032D01*
X004376Y004378D01*
X004425Y004329D01*
X004440Y004329D01*
X004452Y004320D01*
X004521Y004329D01*
X004891Y004329D01*
X004890Y004328D01*
X004839Y004277D01*
X004839Y004265D01*
X003286Y002320D01*
X002207Y002320D01*
X002125Y002238D01*
X002125Y001177D01*
X002207Y001095D01*
X003898Y001095D01*
X003980Y001177D01*
X003980Y002238D01*
X003898Y002320D01*
X003798Y002320D01*
X005135Y003994D01*
X005808Y003994D01*
X005690Y003876D01*
X005573Y003759D01*
X005573Y003159D01*
X005373Y002959D01*
X005373Y001393D01*
X005673Y001093D01*
X005790Y000976D01*
X007099Y000976D01*
X007474Y001352D01*
X007803Y001352D01*
X007885Y001434D01*
X007885Y001983D01*
X007825Y002043D01*
X007885Y002103D01*
X007885Y002652D01*
X007803Y002734D01*
X007474Y002734D01*
X007182Y003027D01*
X007182Y003148D01*
X007257Y003148D01*
X007303Y003161D01*
X007344Y003184D01*
X007378Y003218D01*
X007402Y003259D01*
X007414Y003305D01*
X007414Y003466D01*
X007182Y003466D01*
X007182Y003466D01*
X007414Y003466D01*
X007414Y003606D01*
X007426Y003606D01*
X007430Y003601D01*
X008120Y003601D01*
X008500Y003981D01*
X008500Y003874D01*
X008878Y003874D01*
X008878Y003838D01*
X008500Y003838D01*
X008500Y003635D01*
X008512Y003590D01*
X008536Y003549D01*
X008570Y003515D01*
X008598Y003499D01*
X008540Y003442D01*
X008540Y002932D01*
X008578Y002894D01*
X008401Y002894D01*
X008214Y002708D01*
X008214Y002444D01*
X008242Y002417D01*
X008209Y002384D01*
X008209Y001835D01*
X008242Y001802D01*
X008239Y001801D01*
X008205Y001767D01*
X008181Y001726D01*
X008169Y001680D01*
X008169Y001458D01*
X008527Y001458D01*
X008527Y001422D01*
X008169Y001422D01*
X008169Y001200D01*
X008181Y001154D01*
X008205Y001113D01*
X008239Y001079D01*
X008280Y001056D01*
X008325Y001043D01*
X008527Y001043D01*
X008527Y001422D01*
X008564Y001422D01*
X008564Y001458D01*
X008923Y001458D01*
X008923Y001680D01*
X008910Y001726D01*
X008887Y001767D01*
X008853Y001801D01*
X008850Y001802D01*
X008883Y001835D01*
X008883Y002384D01*
X008836Y002430D01*
X008851Y002444D01*
X008851Y002708D01*
X008709Y002850D01*
X009171Y002850D01*
X009174Y002852D01*
X009190Y002836D01*
X009036Y002683D01*
X009036Y002627D01*
X008978Y002569D01*
X008978Y002020D01*
X009060Y001938D01*
X009412Y001938D01*
X009482Y002008D01*
X009552Y001938D01*
X009904Y001938D01*
X009974Y002008D01*
X010044Y001938D01*
X010396Y001938D01*
X010466Y002008D01*
X010536Y001938D01*
X010889Y001938D01*
X010971Y002020D01*
X010971Y002569D01*
X010889Y002651D01*
X010536Y002651D01*
X010466Y002581D01*
X010396Y002651D01*
X010250Y002651D01*
X010275Y002676D01*
X010870Y002676D01*
X011369Y002204D01*
X011369Y001885D01*
X011451Y001803D01*
X011960Y001803D01*
X012018Y001861D01*
X012034Y001833D01*
X012067Y001799D01*
X012108Y001776D01*
X012154Y001763D01*
X012356Y001763D01*
X012356Y002142D01*
X012393Y002142D01*
X012393Y002178D01*
X012752Y002178D01*
X012752Y002400D01*
X012739Y002446D01*
X012716Y002487D01*
X012682Y002521D01*
X012641Y002544D01*
X012595Y002557D01*
X012543Y002557D01*
X012691Y002704D01*
X012691Y002968D01*
X012504Y003154D01*
X012351Y003154D01*
X012351Y003154D01*
X012351Y003508D01*
X012086Y003508D01*
X012086Y003508D01*
X012351Y003508D01*
X012351Y003862D01*
X012338Y003908D01*
X012329Y003923D01*
X012391Y003984D01*
X012391Y004248D01*
X012204Y004434D01*
X011941Y004434D01*
X011754Y004248D01*
X011754Y004199D01*
X011745Y004199D01*
X011701Y004155D01*
X011647Y004124D01*
X011638Y004093D01*
X011616Y004071D01*
X011616Y004008D01*
X011608Y003978D01*
X011516Y003978D01*
X011516Y003990D01*
X011611Y004084D01*
X011611Y004348D01*
X011424Y004534D01*
X011161Y004534D01*
X010974Y004348D01*
X010974Y004084D01*
X011081Y003978D01*
X010746Y003978D01*
X010741Y004248D01*
X010854Y004361D01*
X010854Y004625D01*
X010668Y004811D01*
X010404Y004811D01*
X010218Y004625D01*
X010218Y004361D01*
X010341Y004238D01*
X010346Y003978D01*
X009985Y003978D01*
X009985Y004039D01*
X010103Y004156D01*
X010103Y004420D01*
X009916Y004606D01*
X009653Y004606D01*
X009466Y004420D01*
X009466Y004156D01*
X009585Y004038D01*
X009585Y003920D01*
X009561Y003896D01*
X009561Y003120D01*
X009643Y003038D01*
X009772Y003038D01*
X009770Y003036D01*
X009555Y003036D01*
X009253Y003338D01*
X009253Y003442D01*
X009196Y003499D01*
X009224Y003515D01*
X009257Y003549D01*
X009281Y003590D01*
X009293Y003635D01*
X009293Y003838D01*
X008915Y003838D01*
X008915Y003874D01*
X009293Y003874D01*
X009293Y004077D01*
X009281Y004122D01*
X009257Y004163D01*
X009224Y004197D01*
X009183Y004221D01*
X009137Y004233D01*
X008915Y004233D01*
X008915Y003874D01*
X008878Y003874D01*
X008878Y004233D01*
X008752Y004233D01*
X009675Y005156D01*
X010295Y005156D01*
X010635Y005496D01*
X010753Y005613D01*
X010753Y005878D01*
X010866Y005878D01*
X010866Y005453D01*
X010748Y005335D01*
X010748Y005071D01*
X010934Y004885D01*
X011198Y004885D01*
X011384Y005071D01*
X011384Y005335D01*
X011266Y005453D01*
X011381Y005338D01*
X011644Y005338D01*
X011831Y005524D01*
X011831Y005788D01*
X011740Y005878D01*
X012229Y005878D01*
X012311Y005960D01*
X012311Y006148D01*
X012768Y006148D01*
X012768Y006028D01*
X012850Y005946D01*
X013020Y005946D01*
X013173Y005793D01*
X013217Y005749D01*
X012821Y005749D01*
X012739Y005667D01*
X012739Y005157D01*
X012821Y005075D01*
X012930Y005075D01*
X013066Y004940D01*
X012872Y004940D01*
X012827Y004928D01*
X012786Y004904D01*
X012752Y004871D01*
X012728Y004830D01*
X012716Y004784D01*
X012716Y004582D01*
X013094Y004582D01*
X013094Y004545D01*
X012716Y004545D01*
X012716Y004343D01*
X012728Y004297D01*
X012752Y004256D01*
X012786Y004223D01*
X012827Y004199D01*
X012872Y004187D01*
X013094Y004187D01*
X013094Y004545D01*
X013131Y004545D01*
X013131Y004187D01*
X013353Y004187D01*
X013399Y004199D01*
X013440Y004223D01*
X013473Y004256D01*
X013475Y004259D01*
X013507Y004227D01*
X014057Y004227D01*
X014139Y004309D01*
X014139Y004620D01*
X014141Y004618D01*
X014404Y004618D01*
X014591Y004804D01*
X014591Y005068D01*
X014439Y005220D01*
X014753Y005220D01*
X014943Y005030D01*
X014943Y004830D01*
X015025Y004748D01*
X015377Y004748D01*
X015437Y004808D01*
X015497Y004748D01*
X015849Y004748D01*
X015909Y004808D01*
X015942Y004775D01*
X015834Y004668D01*
X015834Y004404D01*
X015885Y004353D01*
X015744Y004353D01*
X015744Y004551D01*
X015662Y004633D01*
X015152Y004633D01*
X015073Y004553D01*
X014993Y004633D01*
X014483Y004633D01*
X014401Y004551D01*
X014401Y004002D01*
X014483Y003920D01*
X014535Y003920D01*
X014535Y003868D01*
X014414Y003748D01*
X014414Y003581D01*
X014260Y003426D01*
X014182Y003426D01*
X014182Y003481D01*
X014100Y003563D01*
X013551Y003563D01*
X013519Y003531D01*
X013517Y003534D01*
X013483Y003567D01*
X013442Y003591D01*
X013397Y003603D01*
X013175Y003603D01*
X013175Y003245D01*
X013138Y003245D01*
X013138Y003603D01*
X012916Y003603D01*
X012870Y003591D01*
X012829Y003567D01*
X012796Y003534D01*
X012772Y003493D01*
X012760Y003447D01*
X012760Y003245D01*
X013138Y003245D01*
X013138Y003208D01*
X012760Y003208D01*
X012760Y003006D01*
X012772Y002960D01*
X012796Y002919D01*
X012829Y002885D01*
X012870Y002862D01*
X012916Y002849D01*
X013138Y002849D01*
X013138Y003208D01*
X013175Y003208D01*
X013175Y002849D01*
X013397Y002849D01*
X013442Y002862D01*
X013483Y002885D01*
X013517Y002919D01*
X013519Y002922D01*
X013551Y002889D01*
X014100Y002889D01*
X014182Y002971D01*
X014182Y003026D01*
X014426Y003026D01*
X014494Y003095D01*
X014494Y002884D01*
X014593Y002786D01*
X014593Y002680D01*
X014721Y002551D01*
X014781Y002492D01*
X014605Y002316D01*
X014115Y002316D01*
X014115Y002716D01*
X014033Y002798D01*
X013680Y002798D01*
X013669Y002788D01*
X013659Y002798D01*
X013341Y002798D01*
X013337Y002803D01*
X013296Y002826D01*
X013250Y002838D01*
X013108Y002838D01*
X012967Y002838D01*
X012921Y002826D01*
X012880Y002803D01*
X012846Y002769D01*
X012823Y002728D01*
X012810Y002682D01*
X012810Y002501D01*
X013108Y002501D01*
X012810Y002501D01*
X012810Y002320D01*
X012823Y002274D01*
X012846Y002233D01*
X012880Y002199D01*
X012921Y002176D01*
X012967Y002164D01*
X013108Y002164D01*
X013108Y002501D01*
X013108Y002501D01*
X013108Y002501D01*
X013108Y002838D01*
X013108Y002501D01*
X013108Y002501D01*
X013108Y002164D01*
X013189Y002164D01*
X013113Y002087D01*
X013017Y001992D01*
X012888Y001863D01*
X012888Y001770D01*
X012850Y001732D01*
X012850Y001570D01*
X012752Y001471D01*
X012704Y001519D01*
X012155Y001519D01*
X012095Y001459D01*
X012035Y001519D01*
X011551Y001519D01*
X011551Y001628D01*
X011364Y001814D01*
X011101Y001814D01*
X010971Y001684D01*
X010971Y001703D01*
X010889Y001785D01*
X010536Y001785D01*
X010466Y001715D01*
X010396Y001785D01*
X010044Y001785D01*
X009999Y001740D01*
X009990Y001756D01*
X009957Y001789D01*
X009916Y001813D01*
X009870Y001825D01*
X009728Y001825D01*
X009586Y001825D01*
X009541Y001813D01*
X009500Y001789D01*
X009482Y001772D01*
X009465Y001789D01*
X009424Y001813D01*
X009378Y001825D01*
X009236Y001825D01*
X009094Y001825D01*
X009048Y001813D01*
X009007Y001789D01*
X008974Y001756D01*
X008950Y001715D01*
X008938Y001669D01*
X008938Y001429D01*
X009236Y001429D01*
X009236Y001825D01*
X009236Y001429D01*
X009236Y001429D01*
X009236Y001429D01*
X009728Y001429D01*
X009728Y001825D01*
X009728Y001429D01*
X009728Y001429D01*
X009728Y001429D01*
X009534Y001429D01*
X009236Y001429D01*
X009236Y001429D01*
X008938Y001429D01*
X008938Y001188D01*
X008950Y001142D01*
X008974Y001101D01*
X009007Y001068D01*
X009048Y001044D01*
X009094Y001032D01*
X009236Y001032D01*
X009236Y001428D01*
X009236Y001032D01*
X009378Y001032D01*
X009424Y001044D01*
X009465Y001068D01*
X009482Y001085D01*
X009500Y001068D01*
X009541Y001044D01*
X009586Y001032D01*
X009728Y001032D01*
X009728Y001428D01*
X009728Y001428D01*
X009728Y001032D01*
X009870Y001032D01*
X009916Y001044D01*
X009957Y001068D01*
X009990Y001101D01*
X009999Y001117D01*
X010044Y001072D01*
X010396Y001072D01*
X010466Y001142D01*
X010536Y001072D01*
X010758Y001072D01*
X010868Y000962D01*
X011169Y000962D01*
X011176Y000957D01*
X011260Y000962D01*
X011404Y000962D01*
X011404Y000927D01*
X011486Y000845D01*
X012035Y000845D01*
X012095Y000905D01*
X012155Y000845D01*
X012704Y000845D01*
X012786Y000927D01*
X012786Y000962D01*
X012865Y000962D01*
X013122Y001219D01*
X013226Y001219D01*
X013154Y001148D01*
X013154Y000884D01*
X013341Y000698D01*
X013604Y000698D01*
X013791Y000884D01*
X013791Y001148D01*
X013719Y001219D01*
X014033Y001219D01*
X014115Y001301D01*
X014115Y001464D01*
X014187Y001536D01*
X015064Y001536D01*
X015655Y002128D01*
X015712Y002184D01*
X015740Y002184D01*
X015800Y002245D01*
X015861Y002184D01*
X016213Y002184D01*
X016273Y002245D01*
X016333Y002184D01*
X016685Y002184D01*
X016767Y002266D01*
X016767Y002712D01*
X016833Y002646D01*
X016833Y002382D01*
X016950Y002265D01*
X017305Y001910D01*
X017305Y001581D01*
X017362Y001524D01*
X017334Y001508D01*
X017301Y001474D01*
X017277Y001433D01*
X017265Y001387D01*
X017265Y001185D01*
X017643Y001185D01*
X017643Y001148D01*
X017680Y001148D01*
X017680Y001185D01*
X018058Y001185D01*
X018058Y001387D01*
X018045Y001433D01*
X018022Y001474D01*
X017988Y001508D01*
X017960Y001524D01*
X018018Y001581D01*
X018018Y001636D01*
X018382Y001636D01*
X018382Y001139D01*
X018464Y001057D01*
X019368Y001057D01*
X019450Y001139D01*
X019450Y002436D01*
X019368Y002518D01*
X018464Y002518D01*
X018382Y002436D01*
X018382Y002036D01*
X018018Y002036D01*
X018018Y002091D01*
X017936Y002173D01*
X017607Y002173D01*
X017233Y002548D01*
X017233Y002646D01*
X017351Y002764D01*
X017351Y003028D01*
X017201Y003178D01*
X017671Y003178D01*
X017753Y003260D01*
X017753Y003554D01*
X017913Y003713D01*
X018870Y002756D01*
X021930Y002756D01*
X022168Y002518D01*
X021417Y002518D01*
X021335Y002436D01*
X021335Y001565D01*
X021164Y001394D01*
X020901Y001394D01*
X020714Y001208D01*
X020714Y000944D01*
X020901Y000758D01*
X021164Y000758D01*
X021351Y000944D01*
X021351Y000958D01*
X021449Y001057D01*
X022321Y001057D01*
X022403Y001139D01*
X022403Y001923D01*
X022733Y001593D01*
X022850Y001476D01*
X023215Y001476D01*
X023215Y001398D01*
X023256Y001358D01*
X023215Y001318D01*
X023215Y001303D01*
X023124Y001394D01*
X022861Y001394D01*
X022674Y001208D01*
X022674Y000944D01*
X022861Y000758D01*
X023124Y000758D01*
X023215Y000849D01*
X023215Y000808D01*
X023297Y000726D01*
X024201Y000726D01*
X024283Y000808D01*
X024283Y001318D01*
X024242Y001358D01*
X024283Y001398D01*
X024283Y001908D01*
X024242Y001949D01*
X024283Y001989D01*
X024283Y002499D01*
X024242Y002539D01*
X024283Y002580D01*
X024283Y003089D01*
X024242Y003130D01*
X024283Y003170D01*
X024283Y003680D01*
X024242Y003720D01*
X024283Y003761D01*
X024283Y004270D01*
X024242Y004311D01*
X024283Y004351D01*
X024283Y004861D01*
X024242Y004901D01*
X024283Y004942D01*
X024283Y005451D01*
X024242Y005492D01*
X024283Y005532D01*
X024283Y006042D01*
X024242Y006082D01*
X024283Y006123D01*
X024283Y006633D01*
X024201Y006715D01*
X023297Y006715D01*
X023215Y006633D01*
X023215Y006621D01*
X023213Y006622D01*
X023209Y006618D01*
X023203Y006618D01*
X023142Y006557D01*
X023078Y006498D01*
X023078Y006493D01*
X022841Y006256D01*
X022713Y006127D01*
X022713Y005387D01*
X022403Y005077D01*
X022403Y006373D01*
X022321Y006455D01*
X021417Y006455D01*
X021335Y006373D01*
X021335Y005076D01*
X021417Y004994D01*
X022319Y004994D01*
X022241Y004916D01*
X017582Y004916D01*
X017500Y004923D01*
X017492Y004916D01*
X017481Y004916D01*
X017423Y004858D01*
X017174Y004647D01*
X017031Y004535D01*
X017031Y004708D01*
X016876Y004862D01*
X016876Y005280D01*
X016794Y005362D01*
X016442Y005362D01*
X016382Y005302D01*
X016322Y005362D01*
X015969Y005362D01*
X015909Y005302D01*
X015873Y005338D01*
X015873Y005374D01*
X016115Y005616D01*
X017455Y005616D01*
X017573Y005733D01*
X017853Y006013D01*
X017853Y006046D01*
X017971Y006164D01*
X017971Y006428D01*
X017334Y006282D02*
X017305Y006282D01*
X016836Y006282D02*
X014982Y006282D01*
X014944Y006244D02*
X015026Y006326D01*
X015026Y006757D01*
X014944Y006839D01*
X014552Y006839D01*
X014470Y006757D01*
X014470Y006326D01*
X014552Y006244D01*
X014944Y006244D01*
X014514Y006282D02*
X014151Y006282D01*
X014151Y006441D02*
X014470Y006441D01*
X014470Y006599D02*
X014132Y006599D01*
X013793Y006599D02*
X013756Y006599D01*
X013756Y006441D02*
X013793Y006441D01*
X012790Y006599D02*
X012311Y006599D01*
X012289Y006758D02*
X014471Y006758D01*
X015025Y006758D02*
X016794Y006758D01*
X017348Y006758D02*
X030683Y006758D01*
X030683Y006846D02*
X030683Y000576D01*
X000413Y000576D01*
X030683Y000576D01*
X030683Y000735D02*
X030509Y000735D01*
X030500Y000726D02*
X030582Y000808D01*
X030582Y001318D01*
X030542Y001358D01*
X030582Y001398D01*
X030582Y001908D01*
X030542Y001949D01*
X030582Y001989D01*
X030582Y002499D01*
X030542Y002539D01*
X030582Y002580D01*
X030582Y003089D01*
X030542Y003130D01*
X030582Y003170D01*
X030582Y003680D01*
X030542Y003720D01*
X030582Y003761D01*
X030582Y004270D01*
X030542Y004311D01*
X030582Y004351D01*
X030582Y004861D01*
X030542Y004901D01*
X030582Y004942D01*
X030582Y005451D01*
X030542Y005492D01*
X030582Y005532D01*
X030582Y006042D01*
X030542Y006082D01*
X030582Y006123D01*
X030582Y006633D01*
X030500Y006715D01*
X029597Y006715D01*
X029515Y006633D01*
X029515Y006123D01*
X029555Y006082D01*
X029515Y006042D01*
X029515Y005532D01*
X029555Y005492D01*
X029515Y005451D01*
X029515Y004942D01*
X029555Y004901D01*
X029515Y004861D01*
X029515Y004351D01*
X029555Y004311D01*
X029515Y004270D01*
X029515Y003761D01*
X029555Y003720D01*
X029515Y003680D01*
X029515Y003170D01*
X029555Y003130D01*
X029515Y003089D01*
X029515Y002580D01*
X029555Y002539D01*
X029515Y002499D01*
X029515Y001989D01*
X029555Y001949D01*
X029515Y001908D01*
X029515Y001398D01*
X029555Y001358D01*
X029515Y001318D01*
X029515Y000808D01*
X029597Y000726D01*
X030500Y000726D01*
X030582Y000893D02*
X030683Y000893D01*
X030683Y001052D02*
X030582Y001052D01*
X030582Y001210D02*
X030683Y001210D01*
X030683Y001369D02*
X030552Y001369D01*
X030582Y001527D02*
X030683Y001527D01*
X030683Y001686D02*
X030582Y001686D01*
X030582Y001844D02*
X030683Y001844D01*
X030683Y002003D02*
X030582Y002003D01*
X030582Y002161D02*
X030683Y002161D01*
X030683Y002320D02*
X030582Y002320D01*
X030582Y002478D02*
X030683Y002478D01*
X030683Y002637D02*
X030582Y002637D01*
X030582Y002795D02*
X030683Y002795D01*
X030683Y002954D02*
X030582Y002954D01*
X030559Y003112D02*
X030683Y003112D01*
X030683Y003271D02*
X030582Y003271D01*
X030582Y003429D02*
X030683Y003429D01*
X030683Y003588D02*
X030582Y003588D01*
X030567Y003746D02*
X030683Y003746D01*
X030683Y003905D02*
X030582Y003905D01*
X030582Y004063D02*
X030683Y004063D01*
X030683Y004222D02*
X030582Y004222D01*
X030582Y004380D02*
X030683Y004380D01*
X030683Y004539D02*
X030582Y004539D01*
X030582Y004697D02*
X030683Y004697D01*
X030683Y004856D02*
X030582Y004856D01*
X030582Y005014D02*
X030683Y005014D01*
X030683Y005173D02*
X030582Y005173D01*
X030582Y005331D02*
X030683Y005331D01*
X030683Y005490D02*
X030544Y005490D01*
X030582Y005648D02*
X030683Y005648D01*
X030683Y005807D02*
X030582Y005807D01*
X030582Y005965D02*
X030683Y005965D01*
X030683Y006124D02*
X030582Y006124D01*
X030582Y006282D02*
X030683Y006282D01*
X030683Y006441D02*
X030582Y006441D01*
X030582Y006599D02*
X030683Y006599D01*
X030683Y006846D02*
X000413Y006846D01*
X000413Y000576D01*
X000413Y000735D02*
X013304Y000735D01*
X013641Y000735D02*
X014417Y000735D01*
X014443Y000708D02*
X014835Y000708D01*
X014917Y000790D01*
X014917Y001221D01*
X014835Y001303D01*
X014443Y001303D01*
X014361Y001221D01*
X014361Y000790D01*
X014443Y000708D01*
X014861Y000735D02*
X016739Y000735D01*
X016766Y000708D02*
X017158Y000708D01*
X017240Y000790D01*
X017240Y001221D01*
X017158Y001303D01*
X016766Y001303D01*
X016684Y001221D01*
X016684Y000790D01*
X016766Y000708D01*
X016684Y000893D02*
X014917Y000893D01*
X014917Y001052D02*
X016684Y001052D01*
X016684Y001210D02*
X014917Y001210D01*
X014361Y001210D02*
X013728Y001210D01*
X013791Y001052D02*
X014361Y001052D01*
X014361Y000893D02*
X013791Y000893D01*
X013473Y001016D02*
X013473Y001507D01*
X013482Y001517D01*
X013108Y001517D02*
X013108Y001772D01*
X013333Y001996D01*
X013813Y001996D01*
X013913Y002096D01*
X014696Y002096D01*
X015092Y002492D01*
X014813Y002771D01*
X014813Y003016D01*
X014494Y002954D02*
X014164Y002954D01*
X014036Y002795D02*
X014584Y002795D01*
X014636Y002637D02*
X014115Y002637D01*
X014115Y002478D02*
X014767Y002478D01*
X014609Y002320D02*
X014115Y002320D01*
X013186Y002161D02*
X012393Y002161D01*
X012393Y002142D02*
X012752Y002142D01*
X012752Y001920D01*
X012739Y001874D01*
X012716Y001833D01*
X012682Y001799D01*
X012641Y001776D01*
X012595Y001763D01*
X012393Y001763D01*
X012393Y002142D01*
X012393Y002003D02*
X012356Y002003D01*
X012356Y001844D02*
X012393Y001844D01*
X012722Y001844D02*
X012888Y001844D01*
X012850Y001686D02*
X011493Y001686D01*
X010972Y001686D02*
X010971Y001686D01*
X011410Y001844D02*
X008883Y001844D01*
X008883Y002003D02*
X008995Y002003D01*
X008546Y002109D02*
X008533Y002123D01*
X008533Y002576D01*
X008851Y002637D02*
X009036Y002637D01*
X008978Y002478D02*
X008851Y002478D01*
X008883Y002320D02*
X008978Y002320D01*
X008978Y002161D02*
X008883Y002161D01*
X009477Y002003D02*
X009488Y002003D01*
X009969Y002003D02*
X009980Y002003D01*
X010461Y002003D02*
X010472Y002003D01*
X010953Y002003D02*
X011369Y002003D01*
X011369Y002161D02*
X010971Y002161D01*
X010971Y002320D02*
X011246Y002320D01*
X011079Y002478D02*
X010971Y002478D01*
X010911Y002637D02*
X010903Y002637D01*
X010522Y002637D02*
X010411Y002637D01*
X009149Y002795D02*
X008763Y002795D01*
X008540Y002954D02*
X007255Y002954D01*
X007182Y003112D02*
X008540Y003112D01*
X008540Y003271D02*
X007405Y003271D01*
X007414Y003429D02*
X008540Y003429D01*
X008514Y003588D02*
X007414Y003588D01*
X008265Y003746D02*
X008500Y003746D01*
X008500Y003905D02*
X008424Y003905D01*
X008878Y003905D02*
X008915Y003905D01*
X009293Y003905D02*
X009569Y003905D01*
X009561Y003746D02*
X009293Y003746D01*
X009280Y003588D02*
X009561Y003588D01*
X009561Y003429D02*
X009253Y003429D01*
X009321Y003271D02*
X009561Y003271D01*
X009569Y003112D02*
X009479Y003112D01*
X008302Y002795D02*
X007413Y002795D01*
X007885Y002637D02*
X008214Y002637D01*
X008214Y002478D02*
X007885Y002478D01*
X007885Y002320D02*
X008209Y002320D01*
X008209Y002161D02*
X007885Y002161D01*
X007865Y002003D02*
X008209Y002003D01*
X008209Y001844D02*
X007885Y001844D01*
X007885Y001686D02*
X008171Y001686D01*
X008921Y001686D02*
X008942Y001686D01*
X009236Y001686D02*
X009236Y001686D01*
X009728Y001686D02*
X009728Y001686D01*
X009728Y001527D02*
X009728Y001527D01*
X009728Y001369D02*
X009728Y001369D01*
X009728Y001210D02*
X009728Y001210D01*
X009728Y001052D02*
X009728Y001052D01*
X009528Y001052D02*
X009437Y001052D01*
X009236Y001052D02*
X009236Y001052D01*
X009036Y001052D02*
X008797Y001052D01*
X008812Y001056D02*
X008853Y001079D01*
X008887Y001113D01*
X008910Y001154D01*
X008923Y001200D01*
X008923Y001422D01*
X008564Y001422D01*
X008564Y001043D01*
X008766Y001043D01*
X008812Y001056D01*
X008564Y001052D02*
X008527Y001052D01*
X008295Y001052D02*
X007174Y001052D01*
X007333Y001210D02*
X008169Y001210D01*
X008527Y001210D02*
X008564Y001210D01*
X008923Y001210D02*
X008938Y001210D01*
X009236Y001210D02*
X009236Y001210D01*
X009236Y001369D02*
X009236Y001369D01*
X009236Y001428D02*
X009236Y001428D01*
X009236Y001527D02*
X009236Y001527D01*
X008938Y001527D02*
X008923Y001527D01*
X008923Y001369D02*
X008938Y001369D01*
X008564Y001369D02*
X008527Y001369D01*
X008169Y001369D02*
X007820Y001369D01*
X007885Y001527D02*
X008169Y001527D01*
X009929Y001052D02*
X010778Y001052D01*
X010959Y001182D02*
X011253Y001182D01*
X011233Y001496D01*
X011551Y001527D02*
X012808Y001527D01*
X013108Y001517D02*
X012774Y001182D01*
X012430Y001182D01*
X012955Y001052D02*
X013154Y001052D01*
X013154Y000893D02*
X012752Y000893D01*
X012108Y000893D02*
X012083Y000893D01*
X011438Y000893D02*
X000413Y000893D01*
X000413Y001052D02*
X005714Y001052D01*
X005556Y001210D02*
X003980Y001210D01*
X003980Y001369D02*
X005397Y001369D01*
X005373Y001527D02*
X003980Y001527D01*
X003980Y001686D02*
X005373Y001686D01*
X005373Y001844D02*
X003980Y001844D01*
X003980Y002003D02*
X005373Y002003D01*
X005373Y002161D02*
X003980Y002161D01*
X003898Y002320D02*
X005373Y002320D01*
X005373Y002478D02*
X003924Y002478D01*
X004051Y002637D02*
X005373Y002637D01*
X005373Y002795D02*
X004177Y002795D01*
X004304Y002954D02*
X005373Y002954D01*
X005526Y003112D02*
X004431Y003112D01*
X004557Y003271D02*
X005573Y003271D01*
X005573Y003429D02*
X004684Y003429D01*
X004811Y003588D02*
X005573Y003588D01*
X005573Y003746D02*
X004937Y003746D01*
X004425Y003746D02*
X000413Y003746D01*
X000413Y003588D02*
X004299Y003588D01*
X004172Y003429D02*
X000413Y003429D01*
X000413Y003271D02*
X004045Y003271D01*
X003919Y003112D02*
X000413Y003112D01*
X000413Y002954D02*
X003792Y002954D01*
X003665Y002795D02*
X000413Y002795D01*
X000413Y002637D02*
X003539Y002637D01*
X003412Y002478D02*
X000413Y002478D01*
X000413Y002320D02*
X002207Y002320D01*
X002125Y002161D02*
X000413Y002161D01*
X000413Y002003D02*
X002125Y002003D01*
X002125Y001844D02*
X000413Y001844D01*
X000413Y001686D02*
X002125Y001686D01*
X002125Y001527D02*
X000413Y001527D01*
X000413Y001369D02*
X002125Y001369D01*
X002125Y001210D02*
X000413Y001210D01*
X010712Y001429D02*
X010959Y001182D01*
X011253Y001182D02*
X011761Y001182D01*
X013113Y001210D02*
X013217Y001210D01*
X014115Y001369D02*
X017265Y001369D01*
X017265Y001210D02*
X017240Y001210D01*
X017265Y001148D02*
X017265Y000946D01*
X017277Y000900D01*
X017301Y000859D01*
X017334Y000826D01*
X017375Y000802D01*
X017421Y000790D01*
X017643Y000790D01*
X017643Y001148D01*
X017265Y001148D01*
X017265Y001052D02*
X017240Y001052D01*
X017643Y001052D02*
X017680Y001052D01*
X017680Y001148D02*
X017680Y000790D01*
X017901Y000790D01*
X017947Y000802D01*
X017988Y000826D01*
X018022Y000859D01*
X018045Y000900D01*
X018058Y000946D01*
X018058Y001148D01*
X017680Y001148D01*
X018058Y001210D02*
X018382Y001210D01*
X018382Y001369D02*
X018058Y001369D01*
X017964Y001527D02*
X018382Y001527D01*
X019450Y001527D02*
X021297Y001527D01*
X021164Y001394D02*
X021164Y001394D01*
X020875Y001369D02*
X019450Y001369D01*
X019450Y001210D02*
X020717Y001210D01*
X021033Y001076D02*
X021157Y001076D01*
X021869Y001788D01*
X022403Y001844D02*
X022482Y001844D01*
X022403Y001686D02*
X022640Y001686D01*
X022799Y001527D02*
X022403Y001527D01*
X022403Y001369D02*
X022835Y001369D01*
X023150Y001369D02*
X023245Y001369D01*
X022677Y001210D02*
X022403Y001210D01*
X022674Y001052D02*
X021444Y001052D01*
X021299Y000893D02*
X022726Y000893D01*
X023289Y000735D02*
X017184Y000735D01*
X017240Y000893D02*
X017281Y000893D01*
X017643Y000893D02*
X017680Y000893D01*
X018041Y000893D02*
X020766Y000893D01*
X020714Y001052D02*
X018058Y001052D01*
X017359Y001527D02*
X014178Y001527D01*
X014096Y001756D02*
X013857Y001517D01*
X014096Y001756D02*
X014973Y001756D01*
X015564Y002348D01*
X015564Y002492D01*
X015567Y002492D01*
X015407Y002652D01*
X015407Y004276D01*
X015550Y004133D01*
X016835Y004133D01*
X016853Y004116D01*
X017313Y004476D01*
X017573Y004696D01*
X022333Y004696D01*
X022933Y005296D01*
X022933Y006036D01*
X023294Y006398D01*
X023749Y006378D01*
X024283Y006441D02*
X029515Y006441D01*
X029515Y006599D02*
X024283Y006599D01*
X024283Y006282D02*
X029515Y006282D01*
X029515Y006124D02*
X024283Y006124D01*
X024283Y005965D02*
X029515Y005965D01*
X029515Y005807D02*
X024283Y005807D01*
X024283Y005648D02*
X029515Y005648D01*
X029553Y005490D02*
X024245Y005490D01*
X024283Y005331D02*
X029515Y005331D01*
X029515Y005173D02*
X024283Y005173D01*
X024283Y005014D02*
X029515Y005014D01*
X029515Y004856D02*
X024283Y004856D01*
X024283Y004697D02*
X029515Y004697D01*
X029515Y004539D02*
X024283Y004539D01*
X024283Y004380D02*
X029515Y004380D01*
X029515Y004222D02*
X024283Y004222D01*
X024283Y004063D02*
X029515Y004063D01*
X029515Y003905D02*
X024283Y003905D01*
X024268Y003746D02*
X029529Y003746D01*
X029515Y003588D02*
X024283Y003588D01*
X024283Y003429D02*
X029515Y003429D01*
X029515Y003271D02*
X024283Y003271D01*
X024260Y003112D02*
X029537Y003112D01*
X029515Y002954D02*
X024283Y002954D01*
X024283Y002795D02*
X029515Y002795D01*
X029515Y002637D02*
X024283Y002637D01*
X024283Y002478D02*
X029515Y002478D01*
X029515Y002320D02*
X024283Y002320D01*
X024283Y002161D02*
X029515Y002161D01*
X029515Y002003D02*
X024283Y002003D01*
X024283Y001844D02*
X029515Y001844D01*
X029515Y001686D02*
X024283Y001686D01*
X024283Y001527D02*
X029515Y001527D01*
X029544Y001369D02*
X024253Y001369D01*
X024283Y001210D02*
X029515Y001210D01*
X029515Y001052D02*
X024283Y001052D01*
X024283Y000893D02*
X029515Y000893D01*
X029588Y000735D02*
X024209Y000735D01*
X021335Y001686D02*
X019450Y001686D01*
X019450Y001844D02*
X021335Y001844D01*
X021335Y002003D02*
X019450Y002003D01*
X019450Y002161D02*
X021335Y002161D01*
X021335Y002320D02*
X019450Y002320D01*
X019408Y002478D02*
X021377Y002478D01*
X022049Y002637D02*
X017233Y002637D01*
X016833Y002637D02*
X016767Y002637D01*
X016767Y002478D02*
X016833Y002478D01*
X016513Y002495D02*
X016509Y002492D01*
X016513Y002495D02*
X016513Y002936D01*
X017266Y003112D02*
X018514Y003112D01*
X018672Y002954D02*
X017351Y002954D01*
X017351Y002795D02*
X018831Y002795D01*
X018424Y002478D02*
X017302Y002478D01*
X017460Y002320D02*
X018382Y002320D01*
X018382Y002161D02*
X017947Y002161D01*
X017212Y002003D02*
X015530Y002003D01*
X015689Y002161D02*
X017053Y002161D01*
X016895Y002320D02*
X016767Y002320D01*
X017305Y001844D02*
X015372Y001844D01*
X015213Y001686D02*
X017305Y001686D01*
X013113Y002087D02*
X013113Y002087D01*
X013028Y002003D02*
X012752Y002003D01*
X013017Y001992D02*
X013017Y001992D01*
X012027Y001844D02*
X012001Y001844D01*
X012752Y002320D02*
X012810Y002320D01*
X013108Y002320D02*
X013108Y002320D01*
X013108Y002478D02*
X013108Y002478D01*
X012810Y002478D02*
X012721Y002478D01*
X012810Y002637D02*
X012623Y002637D01*
X012691Y002795D02*
X012873Y002795D01*
X013108Y002795D02*
X013108Y002795D01*
X013662Y002795D02*
X013677Y002795D01*
X013175Y002954D02*
X013138Y002954D01*
X012776Y002954D02*
X012691Y002954D01*
X012760Y003112D02*
X012546Y003112D01*
X012351Y003271D02*
X012760Y003271D01*
X013138Y003271D02*
X013175Y003271D01*
X013175Y003429D02*
X013138Y003429D01*
X012760Y003429D02*
X012351Y003429D01*
X011836Y003508D02*
X011836Y003979D01*
X012073Y004116D01*
X012391Y004063D02*
X014401Y004063D01*
X014401Y004222D02*
X013438Y004222D01*
X013131Y004222D02*
X013094Y004222D01*
X012787Y004222D02*
X012391Y004222D01*
X012258Y004380D02*
X012716Y004380D01*
X012716Y004539D02*
X010854Y004539D01*
X010854Y004380D02*
X011007Y004380D01*
X010974Y004222D02*
X010741Y004222D01*
X010341Y004222D02*
X010103Y004222D01*
X010103Y004380D02*
X010218Y004380D01*
X010218Y004539D02*
X009984Y004539D01*
X010290Y004697D02*
X009216Y004697D01*
X009058Y004539D02*
X009585Y004539D01*
X009466Y004380D02*
X008899Y004380D01*
X008915Y004222D02*
X008878Y004222D01*
X009179Y004222D02*
X009466Y004222D01*
X009560Y004063D02*
X009293Y004063D01*
X008915Y004063D02*
X008878Y004063D01*
X007795Y004222D02*
X007791Y004222D01*
X007718Y004380D02*
X007954Y004380D01*
X008112Y004539D02*
X007738Y004539D01*
X008063Y004697D02*
X008271Y004697D01*
X008222Y004856D02*
X008429Y004856D01*
X008588Y005014D02*
X008231Y005014D01*
X008186Y005173D02*
X008746Y005173D01*
X008905Y005331D02*
X007520Y005331D01*
X007520Y005173D02*
X007639Y005173D01*
X007594Y005014D02*
X007520Y005014D01*
X007489Y004856D02*
X007379Y004856D01*
X006263Y004856D02*
X004411Y004856D01*
X004204Y005014D02*
X006214Y005014D01*
X006219Y005173D02*
X003997Y005173D01*
X003980Y005331D02*
X005648Y005331D01*
X006057Y005331D02*
X006378Y005331D01*
X006687Y005331D02*
X006846Y005331D01*
X006846Y005173D02*
X006846Y005173D01*
X006846Y005490D02*
X006171Y005490D01*
X006207Y005648D02*
X006868Y005648D01*
X007498Y005648D02*
X009222Y005648D01*
X009380Y005807D02*
X007520Y005807D01*
X007520Y005965D02*
X009561Y005965D01*
X009561Y006124D02*
X007520Y006124D01*
X007457Y006282D02*
X009561Y006282D01*
X009561Y006441D02*
X000413Y006441D01*
X000413Y006599D02*
X009561Y006599D01*
X009582Y006758D02*
X000413Y006758D01*
X000413Y006282D02*
X006910Y006282D01*
X006117Y006124D02*
X003980Y006124D01*
X003980Y005965D02*
X005959Y005965D01*
X005633Y005807D02*
X003980Y005807D01*
X003980Y005648D02*
X005534Y005648D01*
X005534Y005490D02*
X003980Y005490D01*
X003546Y005014D02*
X000413Y005014D01*
X000413Y004856D02*
X003753Y004856D01*
X003960Y004697D02*
X000413Y004697D01*
X000413Y004539D02*
X004167Y004539D01*
X004374Y004380D02*
X000413Y004380D01*
X000413Y004222D02*
X004805Y004222D01*
X004678Y004063D02*
X000413Y004063D01*
X000413Y003905D02*
X004552Y003905D01*
X005064Y003905D02*
X005718Y003905D01*
X009375Y004856D02*
X012743Y004856D01*
X012716Y004697D02*
X010781Y004697D01*
X010805Y005014D02*
X009533Y005014D01*
X010312Y005173D02*
X010748Y005173D01*
X010748Y005331D02*
X010470Y005331D01*
X010629Y005490D02*
X010866Y005490D01*
X010866Y005648D02*
X010753Y005648D01*
X010753Y005807D02*
X010866Y005807D01*
X011266Y005453D02*
X011266Y005453D01*
X011796Y005490D02*
X012739Y005490D01*
X012739Y005648D02*
X011831Y005648D01*
X011812Y005807D02*
X013159Y005807D01*
X012831Y005965D02*
X012311Y005965D01*
X012311Y006124D02*
X012768Y006124D01*
X013945Y005807D02*
X015740Y005807D01*
X015899Y005965D02*
X014105Y005965D01*
X014151Y006124D02*
X017375Y006124D01*
X017804Y005965D02*
X018382Y005965D01*
X018382Y005807D02*
X017646Y005807D01*
X017487Y005648D02*
X018382Y005648D01*
X018382Y005490D02*
X015989Y005490D01*
X015938Y005331D02*
X015880Y005331D01*
X016353Y005331D02*
X016411Y005331D01*
X016825Y005331D02*
X018382Y005331D01*
X018382Y005173D02*
X016876Y005173D01*
X016876Y005014D02*
X018444Y005014D01*
X019388Y005014D02*
X021397Y005014D01*
X021335Y005173D02*
X019450Y005173D01*
X019450Y005331D02*
X021335Y005331D01*
X021335Y005490D02*
X019450Y005490D01*
X019450Y005648D02*
X021335Y005648D01*
X021335Y005807D02*
X019450Y005807D01*
X019450Y005965D02*
X021335Y005965D01*
X021335Y006124D02*
X019450Y006124D01*
X019450Y006282D02*
X021335Y006282D01*
X021403Y006441D02*
X019382Y006441D01*
X018382Y006124D02*
X017930Y006124D01*
X016793Y006441D02*
X015026Y006441D01*
X015026Y006599D02*
X016793Y006599D01*
X017349Y006599D02*
X017506Y006599D01*
X017799Y006599D02*
X023184Y006599D01*
X023026Y006441D02*
X022335Y006441D01*
X022403Y006282D02*
X022867Y006282D01*
X022713Y006124D02*
X022403Y006124D01*
X022403Y005965D02*
X022713Y005965D01*
X022713Y005807D02*
X022403Y005807D01*
X022403Y005648D02*
X022713Y005648D01*
X022713Y005490D02*
X022403Y005490D01*
X022403Y005331D02*
X022656Y005331D01*
X022498Y005173D02*
X022403Y005173D01*
X017420Y004856D02*
X016883Y004856D01*
X017031Y004697D02*
X017233Y004697D01*
X017035Y004539D02*
X017031Y004539D01*
X015864Y004697D02*
X014483Y004697D01*
X014401Y004539D02*
X014139Y004539D01*
X014139Y004380D02*
X014401Y004380D01*
X015550Y004133D02*
X015567Y004116D01*
X015744Y004380D02*
X015859Y004380D01*
X015834Y004539D02*
X015744Y004539D01*
X014943Y004856D02*
X014591Y004856D01*
X014591Y005014D02*
X014943Y005014D01*
X014800Y005173D02*
X014486Y005173D01*
X015408Y005331D02*
X015466Y005331D01*
X015473Y005490D02*
X015049Y005490D01*
X015582Y005648D02*
X014122Y005648D01*
X012739Y005331D02*
X011384Y005331D01*
X011384Y005173D02*
X012739Y005173D01*
X012992Y005014D02*
X011327Y005014D01*
X013094Y004539D02*
X013131Y004539D01*
X013131Y004380D02*
X013094Y004380D01*
X011887Y004380D02*
X011578Y004380D01*
X011611Y004222D02*
X011754Y004222D01*
X011616Y004063D02*
X011589Y004063D01*
X010996Y004063D02*
X010745Y004063D01*
X010344Y004063D02*
X010009Y004063D01*
X012339Y003905D02*
X014535Y003905D01*
X014414Y003746D02*
X012351Y003746D01*
X012351Y003588D02*
X012865Y003588D01*
X013138Y003588D02*
X013175Y003588D01*
X013448Y003588D02*
X014414Y003588D01*
X014263Y003429D02*
X014182Y003429D01*
X013175Y003112D02*
X013138Y003112D01*
X013108Y002637D02*
X013108Y002637D01*
X017753Y003271D02*
X018355Y003271D01*
X018197Y003429D02*
X017753Y003429D01*
X017787Y003588D02*
X018038Y003588D01*
X023013Y002256D02*
X023761Y002256D01*
X023749Y002244D01*
X009063Y005490D02*
X007520Y005490D01*
X002125Y005490D02*
X000413Y005490D01*
X000413Y005648D02*
X002125Y005648D01*
X002125Y005807D02*
X000413Y005807D01*
X000413Y005965D02*
X002125Y005965D01*
X002125Y006124D02*
X000413Y006124D01*
X000413Y005331D02*
X002125Y005331D01*
X002125Y005173D02*
X000413Y005173D01*
M02*
