G75*
G70*
%OFA0B0*%
%FSLAX24Y24*%
%IPPOS*%
%LPD*%
%AMOC8*
5,1,8,0,0,1.08239X$1,22.5*
%
%ADD10C,0.0100*%
%ADD11C,0.0160*%
%ADD12OC8,0.0356*%
%ADD13C,0.0120*%
D10*
X000150Y000336D02*
X000150Y007056D01*
X000150Y007076D02*
X030913Y007076D01*
X030913Y000336D01*
X000150Y000336D01*
D11*
X000413Y000576D02*
X030683Y000576D01*
X000413Y000576D01*
X000413Y006846D01*
X030683Y006846D01*
X030683Y000576D01*
X030683Y000735D02*
X000413Y000735D01*
X000413Y000893D02*
X022726Y000893D01*
X022674Y000944D02*
X022861Y000758D01*
X023124Y000758D01*
X023311Y000944D01*
X023311Y001208D01*
X023299Y001220D01*
X024095Y002016D01*
X024213Y002133D01*
X024213Y005039D01*
X023693Y005559D01*
X023575Y005676D01*
X018435Y005676D01*
X017959Y006153D01*
X017971Y006164D01*
X017971Y006428D01*
X017784Y006614D01*
X017521Y006614D01*
X017403Y006496D01*
X012070Y006496D01*
X011953Y006379D01*
X011548Y005974D01*
X011381Y005974D01*
X011194Y005788D01*
X011194Y005524D01*
X011381Y005338D01*
X011644Y005338D01*
X011831Y005524D01*
X011831Y005691D01*
X012235Y006096D01*
X017403Y006096D01*
X017521Y005978D01*
X017568Y005978D01*
X017570Y005976D01*
X018270Y005276D01*
X023410Y005276D01*
X023813Y004873D01*
X023813Y002299D01*
X022908Y001394D01*
X022861Y001394D01*
X022674Y001208D01*
X022674Y000944D01*
X022674Y001052D02*
X000413Y001052D01*
X000413Y001210D02*
X022677Y001210D01*
X022835Y001369D02*
X000413Y001369D01*
X000413Y001527D02*
X023041Y001527D01*
X023606Y001527D02*
X030683Y001527D01*
X030683Y001369D02*
X023448Y001369D01*
X023308Y001210D02*
X030683Y001210D01*
X030683Y001052D02*
X023311Y001052D01*
X023259Y000893D02*
X030683Y000893D01*
X030683Y001686D02*
X023765Y001686D01*
X023923Y001844D02*
X030683Y001844D01*
X030683Y002003D02*
X024082Y002003D01*
X024213Y002161D02*
X030683Y002161D01*
X030683Y002320D02*
X024213Y002320D01*
X023813Y002320D02*
X016819Y002320D01*
X016977Y002478D02*
X023813Y002478D01*
X024213Y002478D02*
X030683Y002478D01*
X030683Y002637D02*
X024213Y002637D01*
X023813Y002637D02*
X017223Y002637D01*
X017164Y002578D02*
X017077Y002578D01*
X016515Y002016D01*
X012870Y002016D01*
X012753Y002133D01*
X012368Y002518D01*
X012241Y002518D01*
X012054Y002704D01*
X012054Y002968D01*
X012241Y003154D01*
X012504Y003154D01*
X012691Y002968D01*
X012691Y002761D01*
X013035Y002416D01*
X016350Y002416D01*
X016714Y002781D01*
X016714Y003028D01*
X016901Y003214D01*
X017164Y003214D01*
X017351Y003028D01*
X017351Y002764D01*
X017164Y002578D01*
X016570Y002637D02*
X015916Y002637D01*
X015853Y002573D02*
X015997Y002718D01*
X016164Y002718D01*
X016351Y002904D01*
X016351Y003168D01*
X016182Y003336D01*
X018135Y003336D01*
X018253Y003453D01*
X019215Y004416D01*
X022703Y004416D01*
X022821Y004298D01*
X023084Y004298D01*
X023271Y004484D01*
X023271Y004748D01*
X023084Y004934D01*
X022821Y004934D01*
X022703Y004816D01*
X019235Y004816D01*
X019225Y004826D01*
X019060Y004826D01*
X018942Y004709D01*
X017970Y003736D01*
X015250Y003736D01*
X014848Y003334D01*
X014681Y003334D01*
X014494Y003148D01*
X014494Y002884D01*
X014523Y002856D01*
X013435Y002856D01*
X012701Y003591D01*
X012583Y003708D01*
X009984Y003708D01*
X009984Y004038D01*
X010103Y004156D01*
X010103Y004420D01*
X009916Y004606D01*
X009653Y004606D01*
X009466Y004420D01*
X009466Y004156D01*
X009584Y004038D01*
X009584Y003427D01*
X009702Y003309D01*
X009703Y003308D01*
X012418Y003308D01*
X013270Y002456D01*
X015735Y002456D01*
X015853Y002573D01*
X015757Y002478D02*
X016412Y002478D01*
X016241Y002795D02*
X016714Y002795D01*
X016714Y002954D02*
X016351Y002954D01*
X016351Y003112D02*
X016799Y003112D01*
X017266Y003112D02*
X023813Y003112D01*
X024213Y003112D02*
X030683Y003112D01*
X030683Y002954D02*
X024213Y002954D01*
X023813Y002954D02*
X017351Y002954D01*
X017351Y002795D02*
X023813Y002795D01*
X024213Y002795D02*
X030683Y002795D01*
X030683Y003271D02*
X024213Y003271D01*
X023813Y003271D02*
X016248Y003271D01*
X015101Y003588D02*
X012704Y003588D01*
X012862Y003429D02*
X014943Y003429D01*
X014617Y003271D02*
X013021Y003271D01*
X012455Y003271D02*
X006571Y003271D01*
X006571Y003288D02*
X006384Y003474D01*
X006333Y003474D01*
X006014Y004215D01*
X006045Y005319D01*
X006171Y005444D01*
X006171Y005708D01*
X005984Y005894D01*
X005721Y005894D01*
X005534Y005708D01*
X005534Y005444D01*
X005645Y005333D01*
X005614Y004217D01*
X005596Y004173D01*
X005611Y004138D01*
X005610Y004099D01*
X005643Y004065D01*
X005965Y003318D01*
X005934Y003288D01*
X005934Y003024D01*
X006121Y002838D01*
X006384Y002838D01*
X006571Y003024D01*
X006571Y003288D01*
X006571Y003112D02*
X012199Y003112D01*
X012546Y003112D02*
X012614Y003112D01*
X012691Y002954D02*
X012772Y002954D01*
X013338Y002954D02*
X014494Y002954D01*
X014494Y003112D02*
X013179Y003112D01*
X012931Y002795D02*
X012691Y002795D01*
X012815Y002637D02*
X013089Y002637D01*
X012973Y002478D02*
X013248Y002478D01*
X012566Y002320D02*
X000413Y002320D01*
X000413Y002478D02*
X012408Y002478D01*
X012122Y002637D02*
X000413Y002637D01*
X000413Y002795D02*
X012054Y002795D01*
X012054Y002954D02*
X006500Y002954D01*
X006005Y002954D02*
X000413Y002954D01*
X000413Y003112D02*
X005934Y003112D01*
X005934Y003271D02*
X000413Y003271D01*
X000413Y003429D02*
X005917Y003429D01*
X006429Y003429D02*
X009584Y003429D01*
X009584Y003588D02*
X006284Y003588D01*
X006216Y003746D02*
X009584Y003746D01*
X009584Y003905D02*
X006147Y003905D01*
X005712Y003905D02*
X000413Y003905D01*
X000413Y003746D02*
X005780Y003746D01*
X005849Y003588D02*
X000413Y003588D01*
X000413Y004063D02*
X005643Y004063D01*
X006079Y004063D02*
X009560Y004063D01*
X009466Y004222D02*
X006014Y004222D01*
X005614Y004222D02*
X000413Y004222D01*
X000413Y004380D02*
X005618Y004380D01*
X006018Y004380D02*
X009466Y004380D01*
X009585Y004539D02*
X006023Y004539D01*
X005623Y004539D02*
X000413Y004539D01*
X000413Y004697D02*
X005627Y004697D01*
X006027Y004697D02*
X007762Y004697D01*
X007781Y004678D02*
X008044Y004678D01*
X008162Y004796D01*
X009637Y004796D01*
X010218Y004450D01*
X010218Y004361D01*
X010404Y004175D01*
X010668Y004175D01*
X010854Y004361D01*
X010854Y004625D01*
X010668Y004811D01*
X010404Y004811D01*
X010400Y004807D01*
X009816Y005155D01*
X009775Y005196D01*
X009748Y005196D01*
X009724Y005210D01*
X009668Y005196D01*
X008162Y005196D01*
X008044Y005314D01*
X007781Y005314D01*
X007594Y005128D01*
X007594Y004864D01*
X007781Y004678D01*
X008063Y004697D02*
X009803Y004697D01*
X009984Y004539D02*
X010069Y004539D01*
X010103Y004380D02*
X010218Y004380D01*
X010103Y004222D02*
X010357Y004222D01*
X010714Y004222D02*
X010974Y004222D01*
X010974Y004348D02*
X010974Y004084D01*
X011161Y003898D01*
X011424Y003898D01*
X011611Y004084D01*
X011611Y004251D01*
X011655Y004296D01*
X012650Y004296D01*
X013013Y003933D01*
X013130Y003816D01*
X017643Y003816D01*
X017701Y003758D01*
X017964Y003758D01*
X018151Y003944D01*
X018151Y004208D01*
X017964Y004394D01*
X017701Y004394D01*
X017523Y004216D01*
X013295Y004216D01*
X012915Y004596D01*
X013290Y004596D01*
X013433Y004453D01*
X013550Y004336D01*
X015903Y004336D01*
X016021Y004218D01*
X016284Y004218D01*
X016471Y004404D01*
X016471Y004668D01*
X016284Y004854D01*
X016021Y004854D01*
X015903Y004736D01*
X013715Y004736D01*
X013455Y004996D01*
X011555Y004996D01*
X011384Y005168D01*
X011384Y005335D01*
X011198Y005521D01*
X010934Y005521D01*
X010748Y005335D01*
X010748Y005071D01*
X010934Y004885D01*
X011101Y004885D01*
X011273Y004713D01*
X011390Y004596D01*
X011373Y004579D01*
X011328Y004534D01*
X011161Y004534D01*
X010974Y004348D01*
X011007Y004380D02*
X010854Y004380D01*
X010854Y004539D02*
X011332Y004539D01*
X011373Y004579D02*
X011373Y004579D01*
X011390Y004596D02*
X011390Y004596D01*
X011289Y004697D02*
X010781Y004697D01*
X011130Y004856D02*
X010318Y004856D01*
X010053Y005014D02*
X010805Y005014D01*
X010748Y005173D02*
X009799Y005173D01*
X010748Y005331D02*
X006057Y005331D01*
X005645Y005331D02*
X000413Y005331D01*
X000413Y005173D02*
X005641Y005173D01*
X006041Y005173D02*
X007639Y005173D01*
X007594Y005014D02*
X006037Y005014D01*
X005636Y005014D02*
X000413Y005014D01*
X000413Y004856D02*
X005632Y004856D01*
X006032Y004856D02*
X007603Y004856D01*
X006171Y005490D02*
X010903Y005490D01*
X011229Y005490D02*
X011229Y005490D01*
X011796Y005490D02*
X018056Y005490D01*
X017898Y005648D02*
X011831Y005648D01*
X011946Y005807D02*
X017739Y005807D01*
X018305Y005807D02*
X030683Y005807D01*
X030683Y005965D02*
X018146Y005965D01*
X017988Y006124D02*
X030683Y006124D01*
X030683Y006282D02*
X017971Y006282D01*
X017958Y006441D02*
X030683Y006441D01*
X030683Y006599D02*
X017799Y006599D01*
X017506Y006599D02*
X000413Y006599D01*
X000413Y006441D02*
X012014Y006441D01*
X011856Y006282D02*
X000413Y006282D01*
X000413Y006124D02*
X011697Y006124D01*
X011372Y005965D02*
X000413Y005965D01*
X000413Y005807D02*
X005633Y005807D01*
X006072Y005807D02*
X011213Y005807D01*
X011194Y005648D02*
X006171Y005648D01*
X005534Y005648D02*
X000413Y005648D01*
X000413Y005490D02*
X005534Y005490D01*
X000413Y006758D02*
X030683Y006758D01*
X030683Y005648D02*
X023603Y005648D01*
X023762Y005490D02*
X030683Y005490D01*
X030683Y005331D02*
X023920Y005331D01*
X024079Y005173D02*
X030683Y005173D01*
X030683Y005014D02*
X024213Y005014D01*
X023672Y005014D02*
X011537Y005014D01*
X011384Y005173D02*
X023513Y005173D01*
X023813Y004856D02*
X023163Y004856D01*
X022742Y004856D02*
X013596Y004856D01*
X013347Y004539D02*
X012973Y004539D01*
X013131Y004380D02*
X013506Y004380D01*
X013290Y004222D02*
X016017Y004222D01*
X016288Y004222D02*
X017528Y004222D01*
X017687Y004380D02*
X016446Y004380D01*
X016471Y004539D02*
X018772Y004539D01*
X018931Y004697D02*
X016441Y004697D01*
X017978Y004380D02*
X018614Y004380D01*
X018455Y004222D02*
X018137Y004222D01*
X018151Y004063D02*
X018297Y004063D01*
X018862Y004063D02*
X023813Y004063D01*
X024213Y004063D02*
X030683Y004063D01*
X030683Y004222D02*
X024213Y004222D01*
X023813Y004222D02*
X019021Y004222D01*
X019179Y004380D02*
X022739Y004380D01*
X023166Y004380D02*
X023813Y004380D01*
X024213Y004380D02*
X030683Y004380D01*
X030683Y004539D02*
X024213Y004539D01*
X023813Y004539D02*
X023271Y004539D01*
X023271Y004697D02*
X023813Y004697D01*
X024213Y004697D02*
X030683Y004697D01*
X030683Y004856D02*
X024213Y004856D01*
X024213Y003905D02*
X030683Y003905D01*
X030683Y003746D02*
X024213Y003746D01*
X023813Y003746D02*
X018545Y003746D01*
X018387Y003588D02*
X023813Y003588D01*
X024213Y003588D02*
X030683Y003588D01*
X030683Y003429D02*
X024213Y003429D01*
X023813Y003429D02*
X018228Y003429D01*
X017980Y003746D02*
X009984Y003746D01*
X009984Y003905D02*
X011154Y003905D01*
X011431Y003905D02*
X013041Y003905D01*
X012883Y004063D02*
X011589Y004063D01*
X011611Y004222D02*
X012724Y004222D01*
X010996Y004063D02*
X010009Y004063D01*
X011384Y005331D02*
X018215Y005331D01*
X017581Y005965D02*
X012104Y005965D01*
X018942Y004709D02*
X018942Y004709D01*
X018704Y003905D02*
X023813Y003905D01*
X018138Y003905D02*
X018111Y003905D01*
X016660Y002161D02*
X023675Y002161D01*
X023516Y002003D02*
X000413Y002003D01*
X000413Y002161D02*
X012725Y002161D01*
X023199Y001686D02*
X000413Y001686D01*
X000413Y001844D02*
X023358Y001844D01*
D12*
X023013Y002256D03*
X022993Y001076D03*
X021033Y001076D03*
X017033Y002896D03*
X016513Y002936D03*
X016033Y003036D03*
X014813Y003016D03*
X014733Y003616D03*
X012073Y004116D03*
X011293Y004216D03*
X010536Y004493D03*
X009784Y004288D03*
X007913Y004996D03*
X006533Y005036D03*
X005853Y005576D03*
X011066Y005203D03*
X011513Y005656D03*
X014273Y004936D03*
X016153Y004536D03*
X016713Y004576D03*
X017833Y004076D03*
X022953Y004616D03*
X017653Y006296D03*
X006253Y003156D03*
X008533Y002576D03*
X006873Y001796D03*
X011233Y001496D03*
X013473Y001016D03*
X012373Y002836D03*
D13*
X012373Y002796D01*
X012953Y002216D01*
X016433Y002216D01*
X017033Y002816D01*
X017033Y002896D01*
X016033Y003036D02*
X015653Y002656D01*
X013353Y002656D01*
X012501Y003508D01*
X009786Y003508D01*
X009784Y003509D01*
X009784Y004288D01*
X009693Y004996D02*
X010536Y004493D01*
X011293Y004216D02*
X011573Y004496D01*
X012733Y004496D01*
X013213Y004016D01*
X017833Y004016D01*
X017833Y004076D01*
X016153Y004536D02*
X013633Y004536D01*
X013373Y004796D01*
X011473Y004796D01*
X011066Y005203D01*
X009693Y004996D02*
X007913Y004996D01*
X005853Y005576D02*
X005813Y004176D01*
X006253Y003156D01*
X014813Y003016D02*
X015333Y003536D01*
X018053Y003536D01*
X019142Y004626D01*
X019152Y004616D01*
X022953Y004616D01*
X023493Y005476D02*
X024013Y004956D01*
X024013Y002216D01*
X022993Y001196D01*
X022993Y001076D01*
X023493Y005476D02*
X018353Y005476D01*
X017653Y006176D01*
X017653Y006296D01*
X012153Y006296D01*
X011513Y005656D01*
M02*
