G75*
G70*
%OFA0B0*%
%FSLAX24Y24*%
%IPPOS*%
%LPD*%
%AMOC8*
5,1,8,0,0,1.08239X$1,22.5*
%
%ADD10C,0.0100*%
%ADD11R,0.0210X0.0700*%
%ADD12R,0.0473X0.0434*%
%ADD13R,0.0276X0.0473*%
%ADD14R,0.0434X0.0473*%
%ADD15R,0.0276X0.0355*%
%ADD16R,0.0276X0.0375*%
%ADD17R,0.0316X0.0355*%
%ADD18R,0.0631X0.0631*%
%ADD19R,0.0316X0.0150*%
%ADD20R,0.0150X0.0316*%
%ADD21R,0.0827X0.0434*%
%ADD22R,0.1615X0.0985*%
%ADD23R,0.0827X0.1221*%
D10*
X000150Y000336D02*
X000150Y007056D01*
X000150Y007076D02*
X030913Y007076D01*
X030913Y000336D01*
X000150Y000336D01*
D11*
X009786Y003508D03*
X010036Y003508D03*
X010296Y003508D03*
X010556Y003508D03*
X010806Y003508D03*
X011066Y003508D03*
X011316Y003508D03*
X011576Y003508D03*
X011836Y003508D03*
X012086Y003508D03*
X012086Y006348D03*
X011836Y006348D03*
X011576Y006348D03*
X011316Y006348D03*
X011066Y006348D03*
X010806Y006348D03*
X010556Y006348D03*
X010296Y006348D03*
X010036Y006348D03*
X009786Y006348D03*
D12*
X013096Y005412D03*
X013765Y005412D03*
X013782Y004564D03*
X013113Y004564D03*
X008897Y003856D03*
X008897Y003187D03*
X013156Y003226D03*
X013826Y003226D03*
X017661Y001836D03*
X017661Y001167D03*
X012430Y001182D03*
X011761Y001182D03*
D13*
X010712Y001429D03*
X010220Y001429D03*
X009728Y001429D03*
X009236Y001429D03*
X009236Y002295D03*
X009728Y002295D03*
X010220Y002295D03*
X010712Y002295D03*
D14*
X011705Y002160D03*
X012375Y002160D03*
X008546Y002109D03*
X007548Y002378D03*
X006263Y002382D03*
X006263Y001713D03*
X007548Y001708D03*
X008546Y001440D03*
X016747Y003534D03*
X017416Y003534D03*
X015407Y004276D03*
X014738Y004276D03*
X007183Y005275D03*
X007183Y005944D03*
X013105Y006302D03*
X013774Y006302D03*
D15*
X013857Y002501D03*
X013482Y002501D03*
X013108Y002501D03*
X013108Y001517D03*
X013482Y001517D03*
X013857Y001517D03*
D16*
X015092Y002492D03*
X015564Y002492D03*
X016037Y002492D03*
X016509Y002492D03*
X016618Y005055D03*
X016146Y005055D03*
X015673Y005055D03*
X015201Y005055D03*
D17*
X014748Y006541D03*
X017071Y006541D03*
X016962Y001006D03*
X014639Y001006D03*
D18*
X006982Y003998D03*
D19*
X007513Y003998D03*
X007513Y004194D03*
X006450Y004194D03*
X006450Y003998D03*
X006450Y003801D03*
X007513Y003801D03*
D20*
X007179Y003466D03*
X006982Y003466D03*
X006785Y003466D03*
X006785Y004529D03*
X006982Y004529D03*
X007179Y004529D03*
D21*
X023749Y004606D03*
X023749Y005197D03*
X023749Y005787D03*
X023749Y006378D03*
X030048Y006378D03*
X030048Y005787D03*
X030048Y005197D03*
X030048Y004606D03*
X030048Y004016D03*
X030048Y003425D03*
X030048Y002834D03*
X030048Y002244D03*
X030048Y001653D03*
X030048Y001063D03*
X023749Y001063D03*
X023749Y001653D03*
X023749Y002244D03*
X023749Y002834D03*
X023749Y003425D03*
X023749Y004016D03*
D22*
X003053Y005645D03*
X003053Y001708D03*
D23*
X018916Y001788D03*
X021869Y001788D03*
X021869Y005725D03*
X018916Y005725D03*
M02*
