G75*
G70*
%OFA0B0*%
%FSLAX24Y24*%
%IPPOS*%
%LPD*%
%AMOC8*
5,1,8,0,0,1.08239X$1,22.5*
%
%ADD10C,0.0010*%
%ADD11C,0.0100*%
%ADD12C,0.0030*%
%ADD13C,0.0090*%
%ADD14C,0.0050*%
%ADD15C,0.0079*%
%ADD16C,0.0020*%
D10*
X007973Y001772D02*
X007998Y001747D01*
X008048Y001747D01*
X008073Y001772D01*
X008120Y001822D02*
X008195Y001897D01*
X008195Y001747D01*
X008220Y001822D02*
X008120Y001822D01*
X008073Y001872D02*
X008048Y001897D01*
X007998Y001897D01*
X007973Y001872D01*
X007973Y001772D01*
X007013Y002127D02*
X007013Y002152D01*
X007114Y002252D01*
X007114Y002277D01*
X007013Y002277D01*
X006966Y002252D02*
X006941Y002277D01*
X006891Y002277D01*
X006866Y002252D01*
X006866Y002152D01*
X006891Y002127D01*
X006941Y002127D01*
X006966Y002152D01*
X005923Y002127D02*
X005923Y002101D01*
X005898Y002076D01*
X005848Y002076D01*
X005823Y002101D01*
X005823Y002127D01*
X005848Y002152D01*
X005898Y002152D01*
X005923Y002127D01*
X005898Y002076D02*
X005923Y002051D01*
X005923Y002026D01*
X005898Y002001D01*
X005848Y002001D01*
X005823Y002026D01*
X005823Y002051D01*
X005848Y002076D01*
X005776Y002026D02*
X005751Y002001D01*
X005701Y002001D01*
X005676Y002026D01*
X005676Y002127D01*
X005701Y002152D01*
X005751Y002152D01*
X005776Y002127D01*
X009499Y000935D02*
X009549Y000885D01*
X009599Y000935D01*
X009599Y000785D01*
X009646Y000810D02*
X009671Y000785D01*
X009721Y000785D01*
X009746Y000810D01*
X009746Y000835D01*
X009721Y000860D01*
X009671Y000860D01*
X009646Y000885D01*
X009646Y000910D01*
X009671Y000935D01*
X009721Y000935D01*
X009746Y000910D01*
X009793Y000935D02*
X009793Y000860D01*
X009843Y000885D01*
X009868Y000885D01*
X009893Y000860D01*
X009893Y000810D01*
X009868Y000785D01*
X009818Y000785D01*
X009793Y000810D01*
X009941Y000810D02*
X009941Y000860D01*
X010016Y000860D01*
X010041Y000835D01*
X010041Y000810D01*
X010016Y000785D01*
X009966Y000785D01*
X009941Y000810D01*
X009941Y000860D02*
X009991Y000910D01*
X010041Y000935D01*
X010088Y000885D02*
X010138Y000935D01*
X010138Y000785D01*
X010088Y000785D02*
X010188Y000785D01*
X010235Y000785D02*
X010335Y000785D01*
X010285Y000785D02*
X010285Y000935D01*
X010235Y000885D01*
X009893Y000935D02*
X009793Y000935D01*
X009499Y000935D02*
X009499Y000785D01*
X011962Y000825D02*
X011962Y000725D01*
X011987Y000700D01*
X012037Y000700D01*
X012062Y000725D01*
X012109Y000700D02*
X012209Y000700D01*
X012159Y000700D02*
X012159Y000850D01*
X012109Y000800D01*
X012062Y000825D02*
X012037Y000850D01*
X011987Y000850D01*
X011962Y000825D01*
X013040Y001924D02*
X013040Y002025D01*
X013090Y002075D01*
X013140Y002025D01*
X013140Y001924D01*
X013187Y001924D02*
X013262Y001924D01*
X013287Y001949D01*
X013287Y002050D01*
X013262Y002075D01*
X013187Y002075D01*
X013187Y001924D01*
X013140Y002000D02*
X013040Y002000D01*
X013334Y001975D02*
X013409Y001975D01*
X013434Y002000D01*
X013434Y002050D01*
X013409Y002075D01*
X013334Y002075D01*
X013334Y001924D01*
X013482Y001924D02*
X013582Y001924D01*
X013532Y001924D02*
X013532Y002075D01*
X013482Y002025D01*
X013629Y002000D02*
X013704Y002000D01*
X013729Y001975D01*
X013729Y001949D01*
X013704Y001924D01*
X013654Y001924D01*
X013629Y001949D01*
X013629Y002000D01*
X013679Y002050D01*
X013729Y002075D01*
X013776Y002050D02*
X013801Y002075D01*
X013851Y002075D01*
X013876Y002050D01*
X013776Y001949D01*
X013801Y001924D01*
X013851Y001924D01*
X013876Y001949D01*
X013876Y002050D01*
X013776Y002050D02*
X013776Y001949D01*
X015625Y001982D02*
X015650Y001957D01*
X015700Y001957D01*
X015725Y001982D01*
X015773Y001982D02*
X015798Y001957D01*
X015848Y001957D01*
X015873Y001982D01*
X015873Y002082D01*
X015848Y002107D01*
X015798Y002107D01*
X015773Y002082D01*
X015773Y001982D01*
X015625Y001982D02*
X015625Y002082D01*
X015650Y002107D01*
X015700Y002107D01*
X015725Y002082D01*
X015920Y002107D02*
X016020Y001957D01*
X016020Y002107D01*
X016067Y002107D02*
X016167Y001957D01*
X016167Y002107D01*
X016067Y002107D02*
X016067Y001957D01*
X015920Y001957D02*
X015920Y002107D01*
X016362Y002107D02*
X016362Y001957D01*
X016362Y002007D02*
X016462Y002107D01*
X016509Y002082D02*
X016509Y001982D01*
X016534Y001957D01*
X016584Y001957D01*
X016609Y001982D01*
X016609Y002082D01*
X016584Y002107D01*
X016534Y002107D01*
X016509Y002082D01*
X016387Y002032D02*
X016462Y001957D01*
X016315Y001932D02*
X016215Y001932D01*
X016657Y001957D02*
X016732Y001957D01*
X016757Y001982D01*
X016757Y002007D01*
X016732Y002032D01*
X016657Y002032D01*
X016732Y002032D02*
X016757Y002057D01*
X016757Y002082D01*
X016732Y002107D01*
X016657Y002107D01*
X016657Y001957D01*
X016804Y001982D02*
X016829Y001957D01*
X016879Y001957D01*
X016904Y001982D01*
X016904Y002082D01*
X016879Y002107D01*
X016829Y002107D01*
X016804Y002082D01*
X016804Y001982D01*
X020038Y001981D02*
X020113Y001981D01*
X020138Y002006D01*
X020138Y002031D01*
X020113Y002056D01*
X020038Y002056D01*
X020113Y002056D02*
X020138Y002081D01*
X020138Y002106D01*
X020113Y002131D01*
X020038Y002131D01*
X020038Y001981D01*
X020185Y002006D02*
X020210Y001981D01*
X020260Y001981D01*
X020285Y002006D01*
X020285Y002131D01*
X020332Y002131D02*
X020432Y002131D01*
X020479Y002131D02*
X020580Y002131D01*
X020530Y002131D02*
X020530Y001981D01*
X020627Y002006D02*
X020652Y001981D01*
X020702Y001981D01*
X020727Y002006D01*
X020727Y002106D01*
X020702Y002131D01*
X020652Y002131D01*
X020627Y002106D01*
X020627Y002006D01*
X020774Y001981D02*
X020774Y002131D01*
X020874Y001981D01*
X020874Y002131D01*
X020382Y002131D02*
X020382Y001981D01*
X020185Y002006D02*
X020185Y002131D01*
X018287Y000834D02*
X018237Y000809D01*
X018187Y000759D01*
X018262Y000759D01*
X018287Y000734D01*
X018287Y000709D01*
X018262Y000684D01*
X018212Y000684D01*
X018187Y000709D01*
X018187Y000759D01*
X018140Y000759D02*
X018115Y000734D01*
X018040Y000734D01*
X018090Y000734D02*
X018140Y000684D01*
X018140Y000759D02*
X018140Y000809D01*
X018115Y000834D01*
X018040Y000834D01*
X018040Y000684D01*
X011373Y002045D02*
X011272Y002045D01*
X011225Y002045D02*
X011175Y002095D01*
X011200Y002095D02*
X011125Y002095D01*
X011125Y002045D02*
X011125Y002195D01*
X011200Y002195D01*
X011225Y002170D01*
X011225Y002120D01*
X011200Y002095D01*
X011272Y002145D02*
X011323Y002195D01*
X011323Y002045D01*
X008335Y003345D02*
X008235Y003345D01*
X008335Y003445D01*
X008335Y003470D01*
X008310Y003495D01*
X008260Y003495D01*
X008235Y003470D01*
X008188Y003470D02*
X008188Y003420D01*
X008163Y003395D01*
X008088Y003395D01*
X008088Y003345D02*
X008088Y003495D01*
X008163Y003495D01*
X008188Y003470D01*
X008138Y003395D02*
X008188Y003345D01*
X013301Y004039D02*
X013326Y004014D01*
X013376Y004014D01*
X013401Y004039D01*
X013448Y004039D02*
X013473Y004014D01*
X013523Y004014D01*
X013549Y004039D01*
X013549Y004064D01*
X013523Y004089D01*
X013498Y004089D01*
X013523Y004089D02*
X013549Y004114D01*
X013549Y004139D01*
X013523Y004164D01*
X013473Y004164D01*
X013448Y004139D01*
X013401Y004139D02*
X013376Y004164D01*
X013326Y004164D01*
X013301Y004139D01*
X013301Y004039D01*
X013391Y003781D02*
X013366Y003756D01*
X013366Y003656D01*
X013391Y003631D01*
X013441Y003631D01*
X013466Y003656D01*
X013513Y003631D02*
X013613Y003731D01*
X013613Y003756D01*
X013588Y003781D01*
X013538Y003781D01*
X013513Y003756D01*
X013466Y003756D02*
X013441Y003781D01*
X013391Y003781D01*
X013513Y003631D02*
X013613Y003631D01*
X014948Y003771D02*
X014948Y003921D01*
X015023Y003921D01*
X015048Y003896D01*
X015048Y003846D01*
X015023Y003821D01*
X014948Y003821D01*
X014998Y003821D02*
X015048Y003771D01*
X015095Y003796D02*
X015120Y003771D01*
X015170Y003771D01*
X015195Y003796D01*
X015195Y003821D01*
X015170Y003846D01*
X015145Y003846D01*
X015170Y003846D02*
X015195Y003871D01*
X015195Y003896D01*
X015170Y003921D01*
X015120Y003921D01*
X015095Y003896D01*
X017062Y003889D02*
X017062Y004040D01*
X017137Y004040D01*
X017162Y004015D01*
X017162Y003965D01*
X017137Y003939D01*
X017062Y003939D01*
X017112Y003939D02*
X017162Y003889D01*
X017209Y003914D02*
X017234Y003889D01*
X017284Y003889D01*
X017309Y003914D01*
X017309Y003965D01*
X017284Y003990D01*
X017259Y003990D01*
X017209Y003965D01*
X017209Y004040D01*
X017309Y004040D01*
X012733Y005352D02*
X012733Y005377D01*
X012708Y005402D01*
X012633Y005402D01*
X012633Y005352D01*
X012658Y005327D01*
X012708Y005327D01*
X012733Y005352D01*
X012683Y005452D02*
X012633Y005402D01*
X012586Y005352D02*
X012561Y005327D01*
X012511Y005327D01*
X012486Y005352D01*
X012486Y005452D01*
X012511Y005477D01*
X012561Y005477D01*
X012586Y005452D01*
X012683Y005452D02*
X012733Y005477D01*
X010531Y005074D02*
X010506Y005099D01*
X010456Y005099D01*
X010431Y005074D01*
X010431Y004974D01*
X010456Y004949D01*
X010506Y004949D01*
X010531Y004974D01*
X010383Y004949D02*
X010333Y004949D01*
X010358Y004949D02*
X010358Y005099D01*
X010333Y005099D02*
X010383Y005099D01*
X010285Y005074D02*
X010285Y005024D01*
X010260Y004999D01*
X010185Y004999D01*
X010185Y004949D02*
X010185Y005099D01*
X010260Y005099D01*
X010285Y005074D01*
X016208Y005465D02*
X016233Y005440D01*
X016284Y005440D01*
X016309Y005465D01*
X016356Y005465D02*
X016381Y005440D01*
X016431Y005440D01*
X016456Y005465D01*
X016456Y005565D01*
X016431Y005590D01*
X016381Y005590D01*
X016356Y005565D01*
X016356Y005465D01*
X016309Y005565D02*
X016284Y005590D01*
X016233Y005590D01*
X016208Y005565D01*
X016208Y005465D01*
X016503Y005440D02*
X016503Y005590D01*
X016603Y005440D01*
X016603Y005590D01*
X016650Y005590D02*
X016750Y005440D01*
X016750Y005590D01*
X016650Y005590D02*
X016650Y005440D01*
X016798Y005415D02*
X016898Y005415D01*
X016945Y005440D02*
X016945Y005590D01*
X017020Y005590D01*
X017045Y005565D01*
X017045Y005515D01*
X017020Y005490D01*
X016945Y005490D01*
X017092Y005490D02*
X017167Y005490D01*
X017192Y005515D01*
X017192Y005565D01*
X017167Y005590D01*
X017092Y005590D01*
X017092Y005440D01*
X017142Y005490D02*
X017192Y005440D01*
X017240Y005465D02*
X017265Y005440D01*
X017315Y005440D01*
X017340Y005465D01*
X017340Y005565D01*
X017315Y005590D01*
X017265Y005590D01*
X017240Y005565D01*
X017240Y005465D01*
X017387Y005465D02*
X017412Y005440D01*
X017462Y005440D01*
X017487Y005465D01*
X017487Y005515D01*
X017437Y005515D01*
X017387Y005565D02*
X017387Y005465D01*
X017387Y005565D02*
X017412Y005590D01*
X017462Y005590D01*
X017487Y005565D01*
X013547Y006727D02*
X013547Y006877D01*
X013472Y006802D01*
X013572Y006802D01*
X013425Y006802D02*
X013400Y006777D01*
X013325Y006777D01*
X013375Y006777D02*
X013425Y006727D01*
X013425Y006802D02*
X013425Y006852D01*
X013400Y006877D01*
X013325Y006877D01*
X013325Y006727D01*
X024410Y006441D02*
X024460Y006491D01*
X024460Y006341D01*
X024410Y006341D02*
X024510Y006341D01*
D11*
X000150Y007056D02*
X000150Y000336D01*
X030913Y000336D01*
X030913Y007076D01*
X000150Y007076D01*
D12*
X011749Y005723D02*
X012063Y005410D01*
X011906Y005410D02*
X011906Y005723D01*
X012063Y005723D02*
X011749Y005410D01*
X011749Y005566D02*
X012063Y005566D01*
D13*
X009186Y000929D02*
X009188Y000942D01*
X009193Y000955D01*
X009202Y000966D01*
X009213Y000973D01*
X009226Y000978D01*
X009239Y000979D01*
X009253Y000976D01*
X009265Y000970D01*
X009275Y000961D01*
X009282Y000949D01*
X009286Y000936D01*
X009286Y000922D01*
X009282Y000909D01*
X009275Y000897D01*
X009265Y000888D01*
X009253Y000882D01*
X009239Y000879D01*
X009226Y000880D01*
X009213Y000885D01*
X009202Y000892D01*
X009193Y000903D01*
X009188Y000916D01*
X009186Y000929D01*
D14*
X005415Y001314D02*
X004037Y001314D01*
X005415Y001314D02*
X005415Y006038D01*
X003997Y006038D01*
X002147Y006038D02*
X000690Y006038D01*
X000690Y001314D01*
X002147Y001314D01*
X012874Y001819D02*
X012876Y001829D01*
X012881Y001838D01*
X012890Y001844D01*
X012899Y001847D01*
X012910Y001846D01*
X012919Y001841D01*
X012926Y001834D01*
X012930Y001824D01*
X012930Y001814D01*
X012926Y001804D01*
X012919Y001797D01*
X012910Y001792D01*
X012899Y001791D01*
X012890Y001794D01*
X012881Y001800D01*
X012876Y001809D01*
X012874Y001819D01*
X023749Y000689D02*
X023749Y000571D01*
X030048Y000571D01*
X030048Y000689D01*
X030048Y006752D02*
X030048Y006870D01*
X023749Y006870D01*
X023749Y006752D01*
D15*
X007376Y003604D02*
X007378Y003616D01*
X007383Y003627D01*
X007392Y003636D01*
X007403Y003641D01*
X007415Y003643D01*
X007427Y003641D01*
X007438Y003636D01*
X007447Y003627D01*
X007452Y003616D01*
X007454Y003604D01*
X007452Y003592D01*
X007447Y003581D01*
X007438Y003572D01*
X007427Y003567D01*
X007415Y003565D01*
X007403Y003567D01*
X007392Y003572D01*
X007383Y003581D01*
X007378Y003592D01*
X007376Y003604D01*
D16*
X007674Y005527D02*
X007747Y005527D01*
X007784Y005563D01*
X007858Y005563D02*
X007895Y005527D01*
X007968Y005527D01*
X008005Y005563D01*
X008005Y005637D01*
X007968Y005674D01*
X007931Y005674D01*
X007858Y005637D01*
X007858Y005747D01*
X008005Y005747D01*
X007784Y005710D02*
X007747Y005747D01*
X007674Y005747D01*
X007637Y005710D01*
X007637Y005563D01*
X007674Y005527D01*
M02*
