%
M48
M72
T01C0.0236
%
T01
X12073Y4116
X6873Y1796
X13473Y1016
X14733Y3616
X8533Y2576
X14273Y4936
X16513Y2936
X23013Y2256
X21033Y1076
X16713Y4576
X6533Y5036
X11233Y1496
X14813Y3016
X22953Y4616
X12373Y2836
X17033Y2896
X11513Y5656
X17653Y6296
X22993Y1076
X11066Y5203
X16153Y4536
X11293Y4216
X17833Y4076
X16033Y3036
X9784Y4288
X6253Y3156
X5853Y5576
X7913Y4996
X10536Y4493
M30
