%
M48
M72
T01C0.01575
T02C0.01969
%
T01
X186343Y39379
X204256Y44891
X177091Y25993
T02
X119906Y17174
X277369Y22562
X115916Y51937
X100122Y65560
X168429Y50993
X165083Y60245
X186539Y63198
X200319Y50206
X220791Y52174
X223547Y42135
X238705Y63395
X252091Y49025
X269610Y40757
X255634Y35836
X218232Y25206
X182602Y19891
X220004Y59852
X46776Y50600
X262524Y51387
X275122Y51190
X183980Y48828
X223744Y56505
X276500Y10639
X156421Y44300
X156421Y12214
X81421Y25796
X137720Y41938
X148154Y59261
X87917Y62017
X276500Y16544
X169413Y44300
X246185Y22647
X269413Y31899
X114100Y29593
X108132Y55762
X132209Y48631
X162327Y49418
M30
