G75*
%MOIN*%
%OFA0B0*%
%FSLAX25Y25*%
%IPPOS*%
%LPD*%
%AMOC8*
5,1,8,0,0,1.08239X$1,22.5*
%
%ADD10C,0.00300*%
%ADD11C,0.01000*%
%ADD12C,0.00400*%
%ADD13C,0.00900*%
%ADD14C,0.00500*%
%ADD15C,0.00200*%
%ADD16C,0.00800*%
%ADD17C,0.00700*%
%ADD18C,0.00118*%
%ADD19C,0.00591*%
D10*
X0067159Y0014940D02*
X0067643Y0014940D01*
X0068127Y0015423D01*
X0068127Y0017842D01*
X0066192Y0017842D02*
X0066192Y0016391D01*
X0066676Y0015907D01*
X0068127Y0015907D01*
X0065180Y0016391D02*
X0065180Y0017358D01*
X0064697Y0017842D01*
X0063729Y0017842D01*
X0063245Y0017358D01*
X0063245Y0016391D01*
X0063729Y0015907D01*
X0064697Y0015907D01*
X0065180Y0016391D01*
X0062234Y0016391D02*
X0061750Y0015907D01*
X0060299Y0015907D01*
X0060299Y0018809D01*
X0060299Y0017842D02*
X0061750Y0017842D01*
X0062234Y0017358D01*
X0062234Y0016391D01*
X0059287Y0016391D02*
X0058804Y0015907D01*
X0057836Y0015907D01*
X0057352Y0016391D01*
X0057352Y0017358D01*
X0057836Y0017842D01*
X0058804Y0017842D01*
X0059287Y0017358D01*
X0059287Y0016391D01*
X0056341Y0015907D02*
X0054890Y0017358D01*
X0054406Y0016875D02*
X0056341Y0018809D01*
X0054406Y0018809D02*
X0054406Y0015907D01*
X0072085Y0015907D02*
X0073536Y0015907D01*
X0074020Y0016391D01*
X0073536Y0016875D01*
X0072569Y0016875D01*
X0072085Y0017358D01*
X0072569Y0017842D01*
X0074020Y0017842D01*
X0075032Y0017842D02*
X0075515Y0017842D01*
X0075515Y0015907D01*
X0075032Y0015907D02*
X0075999Y0015907D01*
X0076996Y0016391D02*
X0077480Y0015907D01*
X0078931Y0015907D01*
X0078931Y0018809D01*
X0078931Y0017842D02*
X0077480Y0017842D01*
X0076996Y0017358D01*
X0076996Y0016391D01*
X0079942Y0016391D02*
X0080426Y0015907D01*
X0081394Y0015907D01*
X0079942Y0016391D02*
X0079942Y0017358D01*
X0080426Y0017842D01*
X0081394Y0017842D01*
X0081877Y0017358D01*
X0081877Y0016875D01*
X0079942Y0016875D01*
X0075515Y0018809D02*
X0075515Y0019293D01*
X0085835Y0017842D02*
X0086803Y0015907D01*
X0087770Y0017842D01*
X0088782Y0017842D02*
X0089749Y0018809D01*
X0089749Y0015907D01*
X0088782Y0015907D02*
X0090717Y0015907D01*
X0091728Y0015907D02*
X0092212Y0015907D01*
X0092212Y0016391D01*
X0091728Y0016391D01*
X0091728Y0015907D01*
X0093202Y0016391D02*
X0095137Y0018326D01*
X0095137Y0016391D01*
X0094653Y0015907D01*
X0093685Y0015907D01*
X0093202Y0016391D01*
X0093202Y0018326D01*
X0093685Y0018809D01*
X0094653Y0018809D01*
X0095137Y0018326D01*
X0095179Y0013247D02*
X0096630Y0013247D01*
X0097114Y0012764D01*
X0097114Y0012280D01*
X0096630Y0011796D01*
X0095179Y0011796D01*
X0096630Y0011796D02*
X0097114Y0011312D01*
X0097114Y0010829D01*
X0096630Y0010345D01*
X0095179Y0010345D01*
X0095179Y0013247D01*
X0098125Y0013247D02*
X0098125Y0010829D01*
X0098609Y0010345D01*
X0099577Y0010345D01*
X0100060Y0010829D01*
X0100060Y0013247D01*
X0101072Y0013247D02*
X0103007Y0013247D01*
X0103007Y0012764D01*
X0101072Y0010829D01*
X0101072Y0010345D01*
X0103007Y0010345D01*
X0104018Y0010345D02*
X0104018Y0010829D01*
X0105953Y0012764D01*
X0105953Y0013247D01*
X0104018Y0013247D01*
X0114733Y0011706D02*
X0114733Y0009771D01*
X0115216Y0009287D01*
X0116184Y0009287D01*
X0116668Y0009771D01*
X0117679Y0009771D02*
X0117679Y0010255D01*
X0118163Y0010739D01*
X0119130Y0010739D01*
X0119614Y0010255D01*
X0119614Y0009771D01*
X0119130Y0009287D01*
X0118163Y0009287D01*
X0117679Y0009771D01*
X0118163Y0010739D02*
X0117679Y0011222D01*
X0117679Y0011706D01*
X0118163Y0012190D01*
X0119130Y0012190D01*
X0119614Y0011706D01*
X0119614Y0011222D01*
X0119130Y0010739D01*
X0116668Y0011706D02*
X0116184Y0012190D01*
X0115216Y0012190D01*
X0114733Y0011706D01*
X0105953Y0010345D02*
X0104018Y0010345D01*
X0130578Y0019464D02*
X0131062Y0018980D01*
X0132029Y0018980D01*
X0132513Y0019464D01*
X0133525Y0019464D02*
X0133525Y0018980D01*
X0133525Y0019464D02*
X0135460Y0021399D01*
X0135460Y0021883D01*
X0133525Y0021883D01*
X0132513Y0021399D02*
X0132029Y0021883D01*
X0131062Y0021883D01*
X0130578Y0021399D01*
X0130578Y0019464D01*
X0162434Y0015297D02*
X0162434Y0012395D01*
X0162434Y0013362D02*
X0163885Y0013362D01*
X0164368Y0013846D01*
X0164368Y0014814D01*
X0163885Y0015297D01*
X0162434Y0015297D01*
X0165380Y0014330D02*
X0166348Y0015297D01*
X0166348Y0012395D01*
X0167315Y0012395D02*
X0165380Y0012395D01*
X0164368Y0012395D02*
X0163401Y0013362D01*
X0186871Y0011296D02*
X0186871Y0009361D01*
X0187354Y0008877D01*
X0188322Y0008877D01*
X0188806Y0009361D01*
X0189817Y0010329D02*
X0191752Y0010329D01*
X0191268Y0011780D02*
X0189817Y0010329D01*
X0188806Y0011296D02*
X0188322Y0011780D01*
X0187354Y0011780D01*
X0186871Y0011296D01*
X0191268Y0011780D02*
X0191268Y0008877D01*
X0196482Y0015796D02*
X0196482Y0018698D01*
X0197450Y0017731D01*
X0198417Y0018698D01*
X0198417Y0015796D01*
X0199429Y0016280D02*
X0199912Y0015796D01*
X0200880Y0015796D01*
X0201364Y0016280D01*
X0201364Y0016763D01*
X0200880Y0017247D01*
X0199912Y0017247D01*
X0199429Y0017731D01*
X0199429Y0018215D01*
X0199912Y0018698D01*
X0200880Y0018698D01*
X0201364Y0018215D01*
X0202375Y0018698D02*
X0202375Y0017247D01*
X0203343Y0017731D01*
X0203826Y0017731D01*
X0204310Y0017247D01*
X0204310Y0016280D01*
X0203826Y0015796D01*
X0202859Y0015796D01*
X0202375Y0016280D01*
X0205322Y0016280D02*
X0205805Y0015796D01*
X0206773Y0015796D01*
X0207257Y0016280D01*
X0207257Y0016763D01*
X0206773Y0017247D01*
X0205322Y0017247D01*
X0205322Y0016280D01*
X0205322Y0017247D02*
X0206289Y0018215D01*
X0207257Y0018698D01*
X0208268Y0017731D02*
X0209236Y0018698D01*
X0209236Y0015796D01*
X0210203Y0015796D02*
X0208268Y0015796D01*
X0211215Y0015796D02*
X0213150Y0015796D01*
X0212182Y0015796D02*
X0212182Y0018698D01*
X0211215Y0017731D01*
X0204310Y0018698D02*
X0202375Y0018698D01*
X0267378Y0015297D02*
X0267378Y0012394D01*
X0267378Y0013362D02*
X0268829Y0013362D01*
X0269313Y0013846D01*
X0269313Y0014813D01*
X0268829Y0015297D01*
X0267378Y0015297D01*
X0270325Y0015297D02*
X0270325Y0013846D01*
X0271292Y0014329D01*
X0271776Y0014329D01*
X0272260Y0013846D01*
X0272260Y0012878D01*
X0271776Y0012394D01*
X0270808Y0012394D01*
X0270325Y0012878D01*
X0269313Y0012394D02*
X0268346Y0013362D01*
X0270325Y0015297D02*
X0272260Y0015297D01*
X0194337Y0035440D02*
X0192402Y0035440D01*
X0194337Y0037375D01*
X0194337Y0037859D01*
X0193853Y0038343D01*
X0192886Y0038343D01*
X0192402Y0037859D01*
X0191390Y0037859D02*
X0191390Y0036891D01*
X0190907Y0036408D01*
X0189456Y0036408D01*
X0190423Y0036408D02*
X0191390Y0035440D01*
X0189456Y0035440D02*
X0189456Y0038343D01*
X0190907Y0038343D01*
X0191390Y0037859D01*
X0217555Y0037069D02*
X0218038Y0036585D01*
X0219006Y0036585D01*
X0219490Y0037069D01*
X0220501Y0036585D02*
X0222436Y0036585D01*
X0221469Y0036585D02*
X0221469Y0039487D01*
X0220501Y0038520D01*
X0219490Y0039004D02*
X0219006Y0039487D01*
X0218038Y0039487D01*
X0217555Y0039004D01*
X0217555Y0037069D01*
X0223448Y0037069D02*
X0223448Y0039004D01*
X0223931Y0039487D01*
X0224899Y0039487D01*
X0225383Y0039004D01*
X0223448Y0037069D01*
X0223931Y0036585D01*
X0224899Y0036585D01*
X0225383Y0037069D01*
X0225383Y0039004D01*
X0255837Y0039882D02*
X0255837Y0037947D01*
X0256321Y0037463D01*
X0257288Y0037463D01*
X0257772Y0037947D01*
X0258783Y0037463D02*
X0260718Y0037463D01*
X0259751Y0037463D02*
X0259751Y0040366D01*
X0258783Y0039398D01*
X0257772Y0039882D02*
X0257288Y0040366D01*
X0256321Y0040366D01*
X0255837Y0039882D01*
X0185528Y0058655D02*
X0185044Y0058171D01*
X0184076Y0058171D01*
X0183593Y0058655D01*
X0182581Y0058655D02*
X0182097Y0058171D01*
X0181130Y0058171D01*
X0180646Y0058655D01*
X0180646Y0060590D01*
X0181130Y0061073D01*
X0182097Y0061073D01*
X0182581Y0060590D01*
X0183593Y0060590D02*
X0183593Y0060106D01*
X0184076Y0059622D01*
X0185528Y0059622D01*
X0185528Y0058655D02*
X0185528Y0060590D01*
X0185044Y0061073D01*
X0184076Y0061073D01*
X0183593Y0060590D01*
X0174289Y0065462D02*
X0173805Y0064978D01*
X0172838Y0064978D01*
X0172354Y0065462D01*
X0171343Y0065462D02*
X0170859Y0064978D01*
X0169891Y0064978D01*
X0169408Y0065462D01*
X0169408Y0067397D01*
X0169891Y0067880D01*
X0170859Y0067880D01*
X0171343Y0067397D01*
X0172354Y0067397D02*
X0172838Y0067880D01*
X0173805Y0067880D01*
X0174289Y0067397D01*
X0174289Y0066913D01*
X0173805Y0066429D01*
X0174289Y0065945D01*
X0174289Y0065462D01*
X0173805Y0066429D02*
X0173322Y0066429D01*
X0132781Y0057617D02*
X0130846Y0057617D01*
X0130846Y0056165D01*
X0131813Y0056649D01*
X0132297Y0056649D01*
X0132781Y0056165D01*
X0132781Y0055198D01*
X0132297Y0054714D01*
X0131330Y0054714D01*
X0130846Y0055198D01*
X0129834Y0055198D02*
X0129351Y0054714D01*
X0128383Y0054714D01*
X0127899Y0055198D01*
X0127899Y0057133D01*
X0128383Y0057617D01*
X0129351Y0057617D01*
X0129834Y0057133D01*
X0139977Y0055530D02*
X0143113Y0052394D01*
X0141545Y0052394D02*
X0141545Y0055530D01*
X0143113Y0055530D02*
X0139977Y0052394D01*
X0139977Y0053962D02*
X0143113Y0053962D01*
X0109419Y0061945D02*
X0109419Y0062429D01*
X0108936Y0062913D01*
X0107484Y0062913D01*
X0107484Y0061945D01*
X0107968Y0061461D01*
X0108936Y0061461D01*
X0109419Y0061945D01*
X0106473Y0061945D02*
X0105989Y0061461D01*
X0105022Y0061461D01*
X0104538Y0061945D01*
X0104538Y0063880D01*
X0105022Y0064364D01*
X0105989Y0064364D01*
X0106473Y0063880D01*
X0107484Y0062913D02*
X0108452Y0063880D01*
X0109419Y0064364D01*
X0098745Y0048600D02*
X0097294Y0047149D01*
X0099229Y0047149D01*
X0096283Y0047149D02*
X0095799Y0046665D01*
X0094348Y0046665D01*
X0095315Y0046665D02*
X0096283Y0045698D01*
X0094348Y0045698D02*
X0094348Y0048600D01*
X0095799Y0048600D01*
X0096283Y0048116D01*
X0096283Y0047149D01*
X0098745Y0045698D02*
X0098745Y0048600D01*
X0095724Y0039925D02*
X0095724Y0039441D01*
X0093789Y0037506D01*
X0093789Y0037023D01*
X0092778Y0037023D02*
X0091810Y0037990D01*
X0092294Y0037990D02*
X0090843Y0037990D01*
X0090843Y0037023D02*
X0090843Y0039925D01*
X0092294Y0039925D01*
X0092778Y0039441D01*
X0092778Y0038474D01*
X0092294Y0037990D01*
X0093789Y0039925D02*
X0095724Y0039925D01*
X0227229Y0062763D02*
X0227713Y0062279D01*
X0228680Y0062279D01*
X0229164Y0062763D01*
X0230175Y0062279D02*
X0232110Y0064214D01*
X0232110Y0064698D01*
X0231627Y0065182D01*
X0230659Y0065182D01*
X0230175Y0064698D01*
X0229164Y0064698D02*
X0228680Y0065182D01*
X0227713Y0065182D01*
X0227229Y0064698D01*
X0227229Y0062763D01*
X0230175Y0062279D02*
X0232110Y0062279D01*
X0263158Y0062024D02*
X0263158Y0064927D01*
X0264609Y0064927D01*
X0265093Y0064443D01*
X0265093Y0063476D01*
X0264609Y0062992D01*
X0263158Y0062992D01*
X0264125Y0062992D02*
X0265093Y0062024D01*
X0266104Y0062508D02*
X0266588Y0062024D01*
X0267556Y0062024D01*
X0268039Y0062508D01*
X0268039Y0062992D01*
X0267556Y0063476D01*
X0267072Y0063476D01*
X0267556Y0063476D02*
X0268039Y0063959D01*
X0268039Y0064443D01*
X0267556Y0064927D01*
X0266588Y0064927D01*
X0266104Y0064443D01*
X0289973Y0063847D02*
X0290940Y0064814D01*
X0290940Y0061912D01*
X0289973Y0061912D02*
X0291908Y0061912D01*
D11*
X0035752Y0013198D02*
X0035752Y0003355D01*
X0355043Y0003355D01*
X0355043Y0070285D01*
X0035752Y0070285D01*
X0035752Y0060442D01*
X0001500Y0060442D01*
X0001500Y0013198D01*
X0035752Y0013198D01*
D12*
X0156779Y0036193D02*
X0156779Y0040797D01*
X0159081Y0040797D01*
X0159848Y0040030D01*
X0159848Y0038495D01*
X0159081Y0037728D01*
X0156779Y0037728D01*
X0161383Y0036193D02*
X0162917Y0036193D01*
X0162150Y0036193D02*
X0162150Y0040797D01*
X0161383Y0040797D02*
X0162917Y0040797D01*
X0164452Y0040030D02*
X0164452Y0036961D01*
X0165219Y0036193D01*
X0166754Y0036193D01*
X0167521Y0036961D01*
X0167521Y0040030D02*
X0166754Y0040797D01*
X0165219Y0040797D01*
X0164452Y0040030D01*
D13*
X0195601Y0021687D02*
X0195603Y0021731D01*
X0195609Y0021775D01*
X0195619Y0021818D01*
X0195632Y0021860D01*
X0195649Y0021901D01*
X0195670Y0021940D01*
X0195694Y0021977D01*
X0195721Y0022012D01*
X0195751Y0022044D01*
X0195784Y0022074D01*
X0195820Y0022100D01*
X0195857Y0022124D01*
X0195897Y0022143D01*
X0195938Y0022160D01*
X0195981Y0022172D01*
X0196024Y0022181D01*
X0196068Y0022186D01*
X0196112Y0022187D01*
X0196156Y0022184D01*
X0196200Y0022177D01*
X0196243Y0022166D01*
X0196285Y0022152D01*
X0196325Y0022134D01*
X0196364Y0022112D01*
X0196400Y0022088D01*
X0196434Y0022060D01*
X0196466Y0022029D01*
X0196495Y0021995D01*
X0196521Y0021959D01*
X0196543Y0021921D01*
X0196562Y0021881D01*
X0196577Y0021839D01*
X0196589Y0021797D01*
X0196597Y0021753D01*
X0196601Y0021709D01*
X0196601Y0021665D01*
X0196597Y0021621D01*
X0196589Y0021577D01*
X0196577Y0021535D01*
X0196562Y0021493D01*
X0196543Y0021453D01*
X0196521Y0021415D01*
X0196495Y0021379D01*
X0196466Y0021345D01*
X0196434Y0021314D01*
X0196400Y0021286D01*
X0196364Y0021262D01*
X0196325Y0021240D01*
X0196285Y0021222D01*
X0196243Y0021208D01*
X0196200Y0021197D01*
X0196156Y0021190D01*
X0196112Y0021187D01*
X0196068Y0021188D01*
X0196024Y0021193D01*
X0195981Y0021202D01*
X0195938Y0021214D01*
X0195897Y0021231D01*
X0195857Y0021250D01*
X0195820Y0021274D01*
X0195784Y0021300D01*
X0195751Y0021330D01*
X0195721Y0021362D01*
X0195694Y0021397D01*
X0195670Y0021434D01*
X0195649Y0021473D01*
X0195632Y0021514D01*
X0195619Y0021556D01*
X0195609Y0021599D01*
X0195603Y0021643D01*
X0195601Y0021687D01*
D14*
X0223558Y0030258D02*
X0224558Y0031758D01*
X0225558Y0030258D01*
X0223558Y0030258D01*
X0223570Y0030275D02*
X0225547Y0030275D01*
X0225215Y0030774D02*
X0223902Y0030774D01*
X0224235Y0031272D02*
X0224882Y0031272D01*
X0244652Y0043225D02*
X0244654Y0043258D01*
X0244660Y0043291D01*
X0244670Y0043324D01*
X0244683Y0043354D01*
X0244700Y0043383D01*
X0244721Y0043410D01*
X0244744Y0043434D01*
X0244770Y0043455D01*
X0244798Y0043473D01*
X0244829Y0043487D01*
X0244860Y0043498D01*
X0244893Y0043505D01*
X0244927Y0043508D01*
X0244960Y0043507D01*
X0244993Y0043502D01*
X0245026Y0043493D01*
X0245057Y0043480D01*
X0245086Y0043464D01*
X0245113Y0043445D01*
X0245138Y0043422D01*
X0245160Y0043397D01*
X0245179Y0043369D01*
X0245194Y0043339D01*
X0245206Y0043308D01*
X0245214Y0043275D01*
X0245218Y0043242D01*
X0245218Y0043208D01*
X0245214Y0043175D01*
X0245206Y0043142D01*
X0245194Y0043111D01*
X0245179Y0043081D01*
X0245160Y0043053D01*
X0245138Y0043028D01*
X0245113Y0043005D01*
X0245086Y0042986D01*
X0245057Y0042970D01*
X0245026Y0042957D01*
X0244993Y0042948D01*
X0244960Y0042943D01*
X0244927Y0042942D01*
X0244893Y0042945D01*
X0244860Y0042952D01*
X0244829Y0042963D01*
X0244798Y0042977D01*
X0244770Y0042995D01*
X0244744Y0043016D01*
X0244721Y0043040D01*
X0244700Y0043067D01*
X0244683Y0043096D01*
X0244670Y0043126D01*
X0244660Y0043159D01*
X0244654Y0043192D01*
X0244652Y0043225D01*
X0284735Y0068699D02*
X0347727Y0068699D01*
X0347727Y0005707D01*
X0284735Y0005707D01*
X0284735Y0068699D01*
D15*
X0245646Y0057733D02*
X0245279Y0058100D01*
X0244545Y0058100D01*
X0244178Y0057733D01*
X0244178Y0056265D01*
X0244545Y0055898D01*
X0245279Y0055898D01*
X0245646Y0056265D01*
X0245646Y0056999D01*
X0244912Y0056999D01*
X0243436Y0058100D02*
X0241968Y0058100D01*
X0241968Y0055898D01*
X0243436Y0055898D01*
X0241226Y0055898D02*
X0240492Y0056632D01*
X0240859Y0056632D02*
X0239758Y0056632D01*
X0239758Y0055898D02*
X0239758Y0058100D01*
X0240859Y0058100D01*
X0241226Y0057733D01*
X0241226Y0056999D01*
X0240859Y0056632D01*
X0241968Y0056999D02*
X0242702Y0056999D01*
D16*
X0233850Y0033370D02*
X0227698Y0033370D01*
X0227698Y0028449D01*
X0253535Y0033370D02*
X0259686Y0033370D01*
X0259686Y0028449D01*
X0255995Y0016146D02*
X0231389Y0016146D01*
D17*
X0237660Y0022781D02*
X0237660Y0026084D01*
X0239312Y0026084D01*
X0239862Y0025533D01*
X0239862Y0024432D01*
X0239312Y0023882D01*
X0237660Y0023882D01*
X0241343Y0024983D02*
X0242444Y0026084D01*
X0242444Y0022781D01*
X0241343Y0022781D02*
X0243545Y0022781D01*
D18*
X0214492Y0050600D02*
X0202681Y0050600D01*
X0202681Y0062411D01*
X0214492Y0062411D01*
X0214492Y0050600D01*
D19*
X0202797Y0062607D02*
X0202799Y0062640D01*
X0202805Y0062672D01*
X0202814Y0062704D01*
X0202828Y0062734D01*
X0202844Y0062762D01*
X0202864Y0062788D01*
X0202887Y0062812D01*
X0202913Y0062833D01*
X0202941Y0062850D01*
X0202971Y0062865D01*
X0203002Y0062875D01*
X0203034Y0062882D01*
X0203067Y0062885D01*
X0203100Y0062884D01*
X0203132Y0062879D01*
X0203164Y0062870D01*
X0203195Y0062858D01*
X0203223Y0062842D01*
X0203250Y0062823D01*
X0203274Y0062801D01*
X0203296Y0062776D01*
X0203314Y0062748D01*
X0203329Y0062719D01*
X0203341Y0062688D01*
X0203349Y0062656D01*
X0203353Y0062623D01*
X0203353Y0062591D01*
X0203349Y0062558D01*
X0203341Y0062526D01*
X0203329Y0062495D01*
X0203314Y0062466D01*
X0203296Y0062438D01*
X0203274Y0062413D01*
X0203250Y0062391D01*
X0203223Y0062372D01*
X0203195Y0062356D01*
X0203164Y0062344D01*
X0203132Y0062335D01*
X0203100Y0062330D01*
X0203067Y0062329D01*
X0203034Y0062332D01*
X0203002Y0062339D01*
X0202971Y0062349D01*
X0202941Y0062364D01*
X0202913Y0062381D01*
X0202887Y0062402D01*
X0202864Y0062426D01*
X0202844Y0062452D01*
X0202828Y0062480D01*
X0202814Y0062510D01*
X0202805Y0062542D01*
X0202799Y0062574D01*
X0202797Y0062607D01*
M02*
